<?xml version="1.0" encoding="utf-8" standalone="no"?>
<!DOCTYPE svg PUBLIC "-//W3C//DTD SVG 1.1//EN"
  "http://www.w3.org/Graphics/SVG/1.1/DTD/svg11.dtd">
<!-- Created with matplotlib (http://matplotlib.org/) -->
<svg height="339.909pt" version="1.1" viewBox="0 0 420.5525 339.909" width="420.5525pt" xmlns="http://www.w3.org/2000/svg" xmlns:xlink="http://www.w3.org/1999/xlink">
 <defs>
  <style type="text/css">
*{stroke-linecap:butt;stroke-linejoin:round;}
  </style>
 </defs>
 <g id="figure_1">
  <g id="patch_1">
   <path d="M 0 339.909 
L 420.5525 339.909 
L 420.5525 0 
L 0 0 
z
" style="fill:#ffffff;"/>
  </g>
  <g id="axes_1">
   <g id="patch_2">
    <path d="M 52.7325 292.644 
L 409.8525 292.644 
L 409.8525 26.532 
L 52.7325 26.532 
z
" style="fill:#ffffff;"/>
   </g>
   <g id="matplotlib.axis_1">
    <g id="xtick_1">
     <g id="line2d_1">
      <path clip-path="url(#p92daca8748)" d="M 52.7325 292.644 
L 52.7325 26.532 
" style="fill:none;stroke:#b0b0b0;stroke-linecap:square;stroke-width:0.8;"/>
     </g>
     <g id="line2d_2">
      <defs>
       <path d="M 0 0 
L 0 3.5 
" id="m6e2cc1dfa5" style="stroke:#000000;stroke-width:0.8;"/>
      </defs>
      <g>
       <use style="stroke:#000000;stroke-width:0.8;" x="52.7325" xlink:href="#m6e2cc1dfa5" y="292.644"/>
      </g>
     </g>
     <g id="text_1">
      <!-- 0.0 -->
      <defs>
       <path d="M 3.609375 32.71875 
Q 3.609375 44.046875 7.03125 52.21875 
Q 10.453125 60.40625 16.109375 64.40625 
Q 20.515625 67.578125 25.203125 67.578125 
Q 32.8125 67.578125 38.875 59.8125 
Q 46.4375 50.203125 46.4375 33.734375 
Q 46.4375 22.21875 43.109375 14.15625 
Q 39.796875 6.109375 34.640625 2.46875 
Q 29.5 -1.171875 24.703125 -1.171875 
Q 15.234375 -1.171875 8.9375 10.015625 
Q 3.609375 19.4375 3.609375 32.71875 
z
M 13.1875 31.5 
Q 13.1875 17.828125 16.546875 9.1875 
Q 19.34375 1.90625 24.859375 1.90625 
Q 27.484375 1.90625 30.3125 4.265625 
Q 33.15625 6.640625 34.625 12.203125 
Q 36.859375 20.609375 36.859375 35.890625 
Q 36.859375 47.21875 34.515625 54.78125 
Q 32.765625 60.40625 29.984375 62.75 
Q 27.984375 64.359375 25.140625 64.359375 
Q 21.828125 64.359375 19.234375 61.375 
Q 15.71875 57.328125 14.453125 48.625 
Q 13.1875 39.9375 13.1875 31.5 
z
" id="TimesNewRomanPSMT-30"/>
       <path d="M 12.5 9.46875 
Q 14.796875 9.46875 16.359375 7.875 
Q 17.921875 6.296875 17.921875 4.046875 
Q 17.921875 1.8125 16.328125 0.21875 
Q 14.75 -1.375 12.5 -1.375 
Q 10.25 -1.375 8.65625 0.21875 
Q 7.078125 1.8125 7.078125 4.046875 
Q 7.078125 6.34375 8.65625 7.90625 
Q 10.25 9.46875 12.5 9.46875 
z
" id="TimesNewRomanPSMT-2e"/>
      </defs>
      <g transform="translate(42.7325 310.754)scale(0.16 -0.16)">
       <use xlink:href="#TimesNewRomanPSMT-30"/>
       <use x="50" xlink:href="#TimesNewRomanPSMT-2e"/>
       <use x="75" xlink:href="#TimesNewRomanPSMT-30"/>
      </g>
     </g>
    </g>
    <g id="xtick_2">
     <g id="line2d_3">
      <path clip-path="url(#p92daca8748)" d="M 88.4445 292.644 
L 88.4445 26.532 
" style="fill:none;stroke:#b0b0b0;stroke-linecap:square;stroke-width:0.8;"/>
     </g>
     <g id="line2d_4">
      <g>
       <use style="stroke:#000000;stroke-width:0.8;" x="88.4445" xlink:href="#m6e2cc1dfa5" y="292.644"/>
      </g>
     </g>
     <g id="text_2">
      <!-- 0.1 -->
      <defs>
       <path d="M 11.71875 59.71875 
L 27.828125 67.578125 
L 29.4375 67.578125 
L 29.4375 11.671875 
Q 29.4375 6.109375 29.90625 4.734375 
Q 30.375 3.375 31.828125 2.640625 
Q 33.296875 1.90625 37.796875 1.8125 
L 37.796875 0 
L 12.890625 0 
L 12.890625 1.8125 
Q 17.578125 1.90625 18.9375 2.609375 
Q 20.3125 3.328125 20.84375 4.515625 
Q 21.390625 5.71875 21.390625 11.671875 
L 21.390625 47.40625 
Q 21.390625 54.640625 20.90625 56.6875 
Q 20.5625 58.25 19.65625 58.984375 
Q 18.75 59.71875 17.484375 59.71875 
Q 15.671875 59.71875 12.453125 58.203125 
z
" id="TimesNewRomanPSMT-31"/>
      </defs>
      <g transform="translate(78.4445 310.754)scale(0.16 -0.16)">
       <use xlink:href="#TimesNewRomanPSMT-30"/>
       <use x="50" xlink:href="#TimesNewRomanPSMT-2e"/>
       <use x="75" xlink:href="#TimesNewRomanPSMT-31"/>
      </g>
     </g>
    </g>
    <g id="xtick_3">
     <g id="line2d_5">
      <path clip-path="url(#p92daca8748)" d="M 124.1565 292.644 
L 124.1565 26.532 
" style="fill:none;stroke:#b0b0b0;stroke-linecap:square;stroke-width:0.8;"/>
     </g>
     <g id="line2d_6">
      <g>
       <use style="stroke:#000000;stroke-width:0.8;" x="124.1565" xlink:href="#m6e2cc1dfa5" y="292.644"/>
      </g>
     </g>
     <g id="text_3">
      <!-- 0.2 -->
      <defs>
       <path d="M 45.84375 12.75 
L 41.21875 0 
L 2.15625 0 
L 2.15625 1.8125 
Q 19.390625 17.53125 26.421875 27.484375 
Q 33.453125 37.453125 33.453125 45.703125 
Q 33.453125 52 29.59375 56.046875 
Q 25.734375 60.109375 20.359375 60.109375 
Q 15.484375 60.109375 11.59375 57.25 
Q 7.71875 54.390625 5.859375 48.875 
L 4.046875 48.875 
Q 5.28125 57.90625 10.328125 62.734375 
Q 15.375 67.578125 22.953125 67.578125 
Q 31 67.578125 36.390625 62.40625 
Q 41.796875 57.234375 41.796875 50.203125 
Q 41.796875 45.171875 39.453125 40.140625 
Q 35.84375 32.234375 27.734375 23.390625 
Q 15.578125 10.109375 12.546875 7.375 
L 29.828125 7.375 
Q 35.109375 7.375 37.234375 7.765625 
Q 39.359375 8.15625 41.0625 9.34375 
Q 42.78125 10.546875 44.046875 12.75 
z
" id="TimesNewRomanPSMT-32"/>
      </defs>
      <g transform="translate(114.1565 310.754)scale(0.16 -0.16)">
       <use xlink:href="#TimesNewRomanPSMT-30"/>
       <use x="50" xlink:href="#TimesNewRomanPSMT-2e"/>
       <use x="75" xlink:href="#TimesNewRomanPSMT-32"/>
      </g>
     </g>
    </g>
    <g id="xtick_4">
     <g id="line2d_7">
      <path clip-path="url(#p92daca8748)" d="M 159.8685 292.644 
L 159.8685 26.532 
" style="fill:none;stroke:#b0b0b0;stroke-linecap:square;stroke-width:0.8;"/>
     </g>
     <g id="line2d_8">
      <g>
       <use style="stroke:#000000;stroke-width:0.8;" x="159.8685" xlink:href="#m6e2cc1dfa5" y="292.644"/>
      </g>
     </g>
     <g id="text_4">
      <!-- 0.3 -->
      <defs>
       <path d="M 5.078125 53.609375 
Q 7.90625 60.296875 12.21875 63.9375 
Q 16.546875 67.578125 23 67.578125 
Q 30.953125 67.578125 35.203125 62.40625 
Q 38.421875 58.546875 38.421875 54.15625 
Q 38.421875 46.921875 29.34375 39.203125 
Q 35.453125 36.8125 38.578125 32.375 
Q 41.703125 27.9375 41.703125 21.921875 
Q 41.703125 13.328125 36.234375 7.03125 
Q 29.109375 -1.171875 15.578125 -1.171875 
Q 8.890625 -1.171875 6.46875 0.484375 
Q 4.046875 2.15625 4.046875 4.046875 
Q 4.046875 5.46875 5.1875 6.546875 
Q 6.34375 7.625 7.953125 7.625 
Q 9.1875 7.625 10.453125 7.234375 
Q 11.28125 6.984375 14.203125 5.4375 
Q 17.140625 3.90625 18.265625 3.609375 
Q 20.0625 3.078125 22.125 3.078125 
Q 27.09375 3.078125 30.78125 6.9375 
Q 34.46875 10.796875 34.46875 16.0625 
Q 34.46875 19.921875 32.765625 23.578125 
Q 31.5 26.3125 29.984375 27.734375 
Q 27.875 29.6875 24.21875 31.265625 
Q 20.5625 32.859375 16.75 32.859375 
L 15.1875 32.859375 
L 15.1875 34.328125 
Q 19.046875 34.8125 22.921875 37.109375 
Q 26.8125 39.40625 28.5625 42.625 
Q 30.328125 45.84375 30.328125 49.703125 
Q 30.328125 54.734375 27.171875 57.828125 
Q 24.03125 60.9375 19.34375 60.9375 
Q 11.765625 60.9375 6.6875 52.828125 
z
" id="TimesNewRomanPSMT-33"/>
      </defs>
      <g transform="translate(149.8685 310.754)scale(0.16 -0.16)">
       <use xlink:href="#TimesNewRomanPSMT-30"/>
       <use x="50" xlink:href="#TimesNewRomanPSMT-2e"/>
       <use x="75" xlink:href="#TimesNewRomanPSMT-33"/>
      </g>
     </g>
    </g>
    <g id="xtick_5">
     <g id="line2d_9">
      <path clip-path="url(#p92daca8748)" d="M 195.5805 292.644 
L 195.5805 26.532 
" style="fill:none;stroke:#b0b0b0;stroke-linecap:square;stroke-width:0.8;"/>
     </g>
     <g id="line2d_10">
      <g>
       <use style="stroke:#000000;stroke-width:0.8;" x="195.5805" xlink:href="#m6e2cc1dfa5" y="292.644"/>
      </g>
     </g>
     <g id="text_5">
      <!-- 0.4 -->
      <defs>
       <path d="M 46.53125 24.421875 
L 46.53125 17.484375 
L 37.640625 17.484375 
L 37.640625 0 
L 29.59375 0 
L 29.59375 17.484375 
L 1.5625 17.484375 
L 1.5625 23.734375 
L 32.28125 67.578125 
L 37.640625 67.578125 
L 37.640625 24.421875 
z
M 29.59375 24.421875 
L 29.59375 57.28125 
L 6.34375 24.421875 
z
" id="TimesNewRomanPSMT-34"/>
      </defs>
      <g transform="translate(185.5805 310.754)scale(0.16 -0.16)">
       <use xlink:href="#TimesNewRomanPSMT-30"/>
       <use x="50" xlink:href="#TimesNewRomanPSMT-2e"/>
       <use x="75" xlink:href="#TimesNewRomanPSMT-34"/>
      </g>
     </g>
    </g>
    <g id="xtick_6">
     <g id="line2d_11">
      <path clip-path="url(#p92daca8748)" d="M 231.2925 292.644 
L 231.2925 26.532 
" style="fill:none;stroke:#b0b0b0;stroke-linecap:square;stroke-width:0.8;"/>
     </g>
     <g id="line2d_12">
      <g>
       <use style="stroke:#000000;stroke-width:0.8;" x="231.2925" xlink:href="#m6e2cc1dfa5" y="292.644"/>
      </g>
     </g>
     <g id="text_6">
      <!-- 0.5 -->
      <defs>
       <path d="M 43.40625 66.21875 
L 39.59375 57.90625 
L 19.671875 57.90625 
L 15.328125 49.03125 
Q 28.265625 47.125 35.84375 39.40625 
Q 42.328125 32.765625 42.328125 23.78125 
Q 42.328125 18.5625 40.203125 14.109375 
Q 38.09375 9.671875 34.859375 6.546875 
Q 31.640625 3.421875 27.6875 1.515625 
Q 22.078125 -1.171875 16.15625 -1.171875 
Q 10.203125 -1.171875 7.484375 0.84375 
Q 4.78125 2.875 4.78125 5.328125 
Q 4.78125 6.6875 5.90625 7.734375 
Q 7.03125 8.796875 8.734375 8.796875 
Q 10.015625 8.796875 10.96875 8.40625 
Q 11.921875 8.015625 14.203125 6.390625 
Q 17.875 3.859375 21.625 3.859375 
Q 27.34375 3.859375 31.65625 8.171875 
Q 35.984375 12.5 35.984375 18.703125 
Q 35.984375 24.703125 32.125 29.90625 
Q 28.265625 35.109375 21.484375 37.9375 
Q 16.15625 40.140625 6.984375 40.484375 
L 19.671875 66.21875 
z
" id="TimesNewRomanPSMT-35"/>
      </defs>
      <g transform="translate(221.2925 310.754)scale(0.16 -0.16)">
       <use xlink:href="#TimesNewRomanPSMT-30"/>
       <use x="50" xlink:href="#TimesNewRomanPSMT-2e"/>
       <use x="75" xlink:href="#TimesNewRomanPSMT-35"/>
      </g>
     </g>
    </g>
    <g id="xtick_7">
     <g id="line2d_13">
      <path clip-path="url(#p92daca8748)" d="M 267.0045 292.644 
L 267.0045 26.532 
" style="fill:none;stroke:#b0b0b0;stroke-linecap:square;stroke-width:0.8;"/>
     </g>
     <g id="line2d_14">
      <g>
       <use style="stroke:#000000;stroke-width:0.8;" x="267.0045" xlink:href="#m6e2cc1dfa5" y="292.644"/>
      </g>
     </g>
     <g id="text_7">
      <!-- 0.6 -->
      <defs>
       <path d="M 44.828125 67.578125 
L 44.828125 65.765625 
Q 38.375 65.140625 34.296875 63.203125 
Q 30.21875 61.28125 26.234375 57.328125 
Q 22.265625 53.375 19.65625 48.515625 
Q 17.046875 43.65625 15.28125 36.96875 
Q 22.3125 41.796875 29.390625 41.796875 
Q 36.1875 41.796875 41.15625 36.328125 
Q 46.140625 30.859375 46.140625 22.265625 
Q 46.140625 13.96875 41.109375 7.125 
Q 35.0625 -1.171875 25.09375 -1.171875 
Q 18.3125 -1.171875 13.578125 3.328125 
Q 4.296875 12.0625 4.296875 25.984375 
Q 4.296875 34.859375 7.859375 42.859375 
Q 11.421875 50.875 18.03125 57.078125 
Q 24.65625 63.28125 30.703125 65.421875 
Q 36.765625 67.578125 42 67.578125 
z
M 14.453125 33.40625 
Q 13.578125 26.8125 13.578125 22.75 
Q 13.578125 18.0625 15.3125 12.5625 
Q 17.046875 7.078125 20.453125 3.859375 
Q 22.953125 1.5625 26.515625 1.5625 
Q 30.765625 1.5625 34.109375 5.5625 
Q 37.453125 9.578125 37.453125 17 
Q 37.453125 25.34375 34.125 31.4375 
Q 30.8125 37.546875 24.703125 37.546875 
Q 22.859375 37.546875 20.734375 36.765625 
Q 18.609375 35.984375 14.453125 33.40625 
z
" id="TimesNewRomanPSMT-36"/>
      </defs>
      <g transform="translate(257.0045 310.754)scale(0.16 -0.16)">
       <use xlink:href="#TimesNewRomanPSMT-30"/>
       <use x="50" xlink:href="#TimesNewRomanPSMT-2e"/>
       <use x="75" xlink:href="#TimesNewRomanPSMT-36"/>
      </g>
     </g>
    </g>
    <g id="xtick_8">
     <g id="line2d_15">
      <path clip-path="url(#p92daca8748)" d="M 302.7165 292.644 
L 302.7165 26.532 
" style="fill:none;stroke:#b0b0b0;stroke-linecap:square;stroke-width:0.8;"/>
     </g>
     <g id="line2d_16">
      <g>
       <use style="stroke:#000000;stroke-width:0.8;" x="302.7165" xlink:href="#m6e2cc1dfa5" y="292.644"/>
      </g>
     </g>
     <g id="text_8">
      <!-- 0.7 -->
      <defs>
       <path d="M 10.0625 66.21875 
L 45.5625 66.21875 
L 45.5625 64.359375 
L 23.484375 -1.375 
L 18.015625 -1.375 
L 37.796875 58.25 
L 19.578125 58.25 
Q 14.0625 58.25 11.71875 56.9375 
Q 7.625 54.6875 5.125 50 
L 3.71875 50.53125 
z
" id="TimesNewRomanPSMT-37"/>
      </defs>
      <g transform="translate(292.7165 310.754)scale(0.16 -0.16)">
       <use xlink:href="#TimesNewRomanPSMT-30"/>
       <use x="50" xlink:href="#TimesNewRomanPSMT-2e"/>
       <use x="75" xlink:href="#TimesNewRomanPSMT-37"/>
      </g>
     </g>
    </g>
    <g id="xtick_9">
     <g id="line2d_17">
      <path clip-path="url(#p92daca8748)" d="M 338.4285 292.644 
L 338.4285 26.532 
" style="fill:none;stroke:#b0b0b0;stroke-linecap:square;stroke-width:0.8;"/>
     </g>
     <g id="line2d_18">
      <g>
       <use style="stroke:#000000;stroke-width:0.8;" x="338.4285" xlink:href="#m6e2cc1dfa5" y="292.644"/>
      </g>
     </g>
     <g id="text_9">
      <!-- 0.8 -->
      <defs>
       <path d="M 19.1875 33.34375 
Q 11.328125 39.796875 9.046875 43.703125 
Q 6.78125 47.609375 6.78125 51.8125 
Q 6.78125 58.25 11.765625 62.90625 
Q 16.75 67.578125 25 67.578125 
Q 33.015625 67.578125 37.890625 63.234375 
Q 42.78125 58.890625 42.78125 53.328125 
Q 42.78125 49.609375 40.140625 45.75 
Q 37.5 41.890625 29.15625 36.671875 
Q 37.75 30.03125 40.53125 26.21875 
Q 44.234375 21.234375 44.234375 15.71875 
Q 44.234375 8.734375 38.90625 3.78125 
Q 33.59375 -1.171875 24.953125 -1.171875 
Q 15.53125 -1.171875 10.25 4.734375 
Q 6.0625 9.46875 6.0625 15.09375 
Q 6.0625 19.484375 9.015625 23.796875 
Q 11.96875 28.125 19.1875 33.34375 
z
M 26.859375 38.578125 
Q 32.71875 43.84375 34.28125 46.890625 
Q 35.84375 49.953125 35.84375 53.8125 
Q 35.84375 58.9375 32.953125 61.84375 
Q 30.078125 64.75 25.09375 64.75 
Q 20.125 64.75 17 61.859375 
Q 13.875 58.984375 13.875 55.125 
Q 13.875 52.59375 15.15625 50.046875 
Q 16.453125 47.515625 18.84375 45.21875 
z
M 21.484375 31.5 
Q 17.4375 28.078125 15.484375 24.046875 
Q 13.53125 20.015625 13.53125 15.328125 
Q 13.53125 9.03125 16.96875 5.25 
Q 20.40625 1.46875 25.734375 1.46875 
Q 31 1.46875 34.171875 4.4375 
Q 37.359375 7.421875 37.359375 11.671875 
Q 37.359375 15.1875 35.5 17.96875 
Q 32.03125 23.140625 21.484375 31.5 
z
" id="TimesNewRomanPSMT-38"/>
      </defs>
      <g transform="translate(328.4285 310.754)scale(0.16 -0.16)">
       <use xlink:href="#TimesNewRomanPSMT-30"/>
       <use x="50" xlink:href="#TimesNewRomanPSMT-2e"/>
       <use x="75" xlink:href="#TimesNewRomanPSMT-38"/>
      </g>
     </g>
    </g>
    <g id="xtick_10">
     <g id="line2d_19">
      <path clip-path="url(#p92daca8748)" d="M 374.1405 292.644 
L 374.1405 26.532 
" style="fill:none;stroke:#b0b0b0;stroke-linecap:square;stroke-width:0.8;"/>
     </g>
     <g id="line2d_20">
      <g>
       <use style="stroke:#000000;stroke-width:0.8;" x="374.1405" xlink:href="#m6e2cc1dfa5" y="292.644"/>
      </g>
     </g>
     <g id="text_10">
      <!-- 0.9 -->
      <defs>
       <path d="M 5.28125 -1.375 
L 5.28125 0.4375 
Q 11.625 0.53125 17.09375 3.390625 
Q 22.5625 6.25 27.65625 13.375 
Q 32.765625 20.515625 34.765625 29.046875 
Q 27.09375 24.125 20.90625 24.125 
Q 13.921875 24.125 8.9375 29.515625 
Q 3.953125 34.90625 3.953125 43.84375 
Q 3.953125 52.546875 8.9375 59.328125 
Q 14.9375 67.578125 24.609375 67.578125 
Q 32.765625 67.578125 38.578125 60.84375 
Q 45.703125 52.484375 45.703125 40.234375 
Q 45.703125 29.203125 40.28125 19.65625 
Q 34.859375 10.109375 25.203125 3.8125 
Q 17.328125 -1.375 8.0625 -1.375 
z
M 35.546875 32.671875 
Q 36.421875 39.015625 36.421875 42.828125 
Q 36.421875 47.5625 34.8125 53.046875 
Q 33.203125 58.546875 30.25 61.46875 
Q 27.296875 64.40625 23.53125 64.40625 
Q 19.1875 64.40625 15.90625 60.5 
Q 12.640625 56.59375 12.640625 48.875 
Q 12.640625 38.578125 17 32.765625 
Q 20.171875 28.5625 24.8125 28.5625 
Q 27.046875 28.5625 30.125 29.640625 
Q 33.203125 30.71875 35.546875 32.671875 
z
" id="TimesNewRomanPSMT-39"/>
      </defs>
      <g transform="translate(364.1405 310.754)scale(0.16 -0.16)">
       <use xlink:href="#TimesNewRomanPSMT-30"/>
       <use x="50" xlink:href="#TimesNewRomanPSMT-2e"/>
       <use x="75" xlink:href="#TimesNewRomanPSMT-39"/>
      </g>
     </g>
    </g>
    <g id="text_11">
     <!-- Recall -->
     <defs>
      <path d="M 67.578125 0 
L 49.90625 0 
L 27.484375 30.953125 
Q 25 30.859375 23.4375 30.859375 
Q 22.796875 30.859375 22.0625 30.875 
Q 21.34375 30.90625 20.5625 30.953125 
L 20.5625 11.71875 
Q 20.5625 5.46875 21.921875 3.953125 
Q 23.78125 1.8125 27.484375 1.8125 
L 30.078125 1.8125 
L 30.078125 0 
L 1.703125 0 
L 1.703125 1.8125 
L 4.203125 1.8125 
Q 8.40625 1.8125 10.203125 4.546875 
Q 11.234375 6.0625 11.234375 11.71875 
L 11.234375 54.5 
Q 11.234375 60.75 9.859375 62.25 
Q 7.953125 64.40625 4.203125 64.40625 
L 1.703125 64.40625 
L 1.703125 66.21875 
L 25.828125 66.21875 
Q 36.375 66.21875 41.375 64.671875 
Q 46.390625 63.140625 49.875 59.015625 
Q 53.375 54.890625 53.375 49.171875 
Q 53.375 43.0625 49.390625 38.5625 
Q 45.40625 34.078125 37.0625 32.234375 
L 50.734375 13.234375 
Q 55.421875 6.6875 58.78125 4.53125 
Q 62.15625 2.390625 67.578125 1.8125 
z
M 20.5625 34.03125 
Q 21.484375 34.03125 22.171875 34 
Q 22.859375 33.984375 23.296875 33.984375 
Q 32.765625 33.984375 37.578125 38.078125 
Q 42.390625 42.1875 42.390625 48.53125 
Q 42.390625 54.734375 38.5 58.609375 
Q 34.625 62.5 28.21875 62.5 
Q 25.390625 62.5 20.5625 61.578125 
z
" id="TimesNewRomanPSMT-52"/>
      <path d="M 10.640625 27.875 
Q 10.59375 17.921875 15.484375 12.25 
Q 20.359375 6.59375 26.953125 6.59375 
Q 31.34375 6.59375 34.59375 9 
Q 37.84375 11.421875 40.046875 17.28125 
L 41.546875 16.3125 
Q 40.53125 9.625 35.59375 4.125 
Q 30.671875 -1.375 23.25 -1.375 
Q 15.1875 -1.375 9.453125 4.90625 
Q 3.71875 11.1875 3.71875 21.78125 
Q 3.71875 33.25 9.59375 39.671875 
Q 15.484375 46.09375 24.359375 46.09375 
Q 31.890625 46.09375 36.71875 41.140625 
Q 41.546875 36.1875 41.546875 27.875 
z
M 10.640625 30.71875 
L 31.34375 30.71875 
Q 31.109375 35.015625 30.328125 36.765625 
Q 29.109375 39.5 26.6875 41.0625 
Q 24.265625 42.625 21.625 42.625 
Q 17.578125 42.625 14.375 39.46875 
Q 11.1875 36.328125 10.640625 30.71875 
z
" id="TimesNewRomanPSMT-65"/>
      <path d="M 41.109375 17 
Q 39.3125 8.15625 34.03125 3.390625 
Q 28.765625 -1.375 22.359375 -1.375 
Q 14.75 -1.375 9.078125 5.015625 
Q 3.421875 11.421875 3.421875 22.3125 
Q 3.421875 32.859375 9.6875 39.453125 
Q 15.96875 46.046875 24.75 46.046875 
Q 31.34375 46.046875 35.59375 42.546875 
Q 39.84375 39.0625 39.84375 35.296875 
Q 39.84375 33.453125 38.640625 32.296875 
Q 37.453125 31.15625 35.296875 31.15625 
Q 32.421875 31.15625 30.953125 33.015625 
Q 30.125 34.03125 29.859375 36.90625 
Q 29.59375 39.796875 27.875 41.3125 
Q 26.171875 42.78125 23.140625 42.78125 
Q 18.265625 42.78125 15.28125 39.15625 
Q 11.328125 34.375 11.328125 26.515625 
Q 11.328125 18.5 15.25 12.375 
Q 19.1875 6.25 25.875 6.25 
Q 30.671875 6.25 34.46875 9.515625 
Q 37.15625 11.765625 39.703125 17.671875 
z
" id="TimesNewRomanPSMT-63"/>
      <path d="M 28.46875 6.453125 
Q 21.578125 1.125 19.828125 0.296875 
Q 17.1875 -0.921875 14.203125 -0.921875 
Q 9.578125 -0.921875 6.5625 2.25 
Q 3.5625 5.421875 3.5625 10.59375 
Q 3.5625 13.875 5.03125 16.265625 
Q 7.03125 19.578125 11.984375 22.5 
Q 16.9375 25.4375 28.46875 29.640625 
L 28.46875 31.390625 
Q 28.46875 38.09375 26.34375 40.578125 
Q 24.21875 43.0625 20.171875 43.0625 
Q 17.09375 43.0625 15.28125 41.40625 
Q 13.421875 39.75 13.421875 37.59375 
L 13.53125 34.765625 
Q 13.53125 32.515625 12.375 31.296875 
Q 11.234375 30.078125 9.375 30.078125 
Q 7.5625 30.078125 6.421875 31.34375 
Q 5.28125 32.625 5.28125 34.8125 
Q 5.28125 39.015625 9.578125 42.53125 
Q 13.875 46.046875 21.625 46.046875 
Q 27.59375 46.046875 31.390625 44.046875 
Q 34.28125 42.53125 35.640625 39.3125 
Q 36.53125 37.203125 36.53125 30.71875 
L 36.53125 15.53125 
Q 36.53125 9.125 36.765625 7.6875 
Q 37.015625 6.25 37.578125 5.765625 
Q 38.140625 5.28125 38.875 5.28125 
Q 39.65625 5.28125 40.234375 5.609375 
Q 41.265625 6.25 44.1875 9.1875 
L 44.1875 6.453125 
Q 38.71875 -0.875 33.734375 -0.875 
Q 31.34375 -0.875 29.921875 0.78125 
Q 28.515625 2.4375 28.46875 6.453125 
z
M 28.46875 9.625 
L 28.46875 26.65625 
Q 21.09375 23.734375 18.953125 22.515625 
Q 15.09375 20.359375 13.421875 18.015625 
Q 11.765625 15.671875 11.765625 12.890625 
Q 11.765625 9.375 13.859375 7.046875 
Q 15.96875 4.734375 18.703125 4.734375 
Q 22.40625 4.734375 28.46875 9.625 
z
" id="TimesNewRomanPSMT-61"/>
      <path d="M 18.5 69.4375 
L 18.5 10.109375 
Q 18.5 5.90625 19.109375 4.53125 
Q 19.734375 3.171875 21 2.46875 
Q 22.265625 1.765625 25.734375 1.765625 
L 25.734375 0 
L 3.8125 0 
L 3.8125 1.765625 
Q 6.890625 1.765625 8 2.390625 
Q 9.125 3.03125 9.765625 4.484375 
Q 10.40625 5.953125 10.40625 10.109375 
L 10.40625 50.734375 
Q 10.40625 58.296875 10.0625 60.03125 
Q 9.71875 61.765625 8.953125 62.390625 
Q 8.203125 63.03125 7.03125 63.03125 
Q 5.765625 63.03125 3.8125 62.25 
L 2.984375 63.96875 
L 16.3125 69.4375 
z
" id="TimesNewRomanPSMT-6c"/>
     </defs>
     <g transform="translate(210.8575 329.2865)scale(0.16 -0.16)">
      <use xlink:href="#TimesNewRomanPSMT-52"/>
      <use x="66.699219" xlink:href="#TimesNewRomanPSMT-65"/>
      <use x="111.083984" xlink:href="#TimesNewRomanPSMT-63"/>
      <use x="155.46875" xlink:href="#TimesNewRomanPSMT-61"/>
      <use x="199.853516" xlink:href="#TimesNewRomanPSMT-6c"/>
      <use x="227.636719" xlink:href="#TimesNewRomanPSMT-6c"/>
     </g>
    </g>
   </g>
   <g id="matplotlib.axis_2">
    <g id="ytick_1">
     <g id="line2d_21">
      <path clip-path="url(#p92daca8748)" d="M 52.7325 292.644 
L 409.8525 292.644 
" style="fill:none;stroke:#b0b0b0;stroke-linecap:square;stroke-width:0.8;"/>
     </g>
     <g id="line2d_22">
      <defs>
       <path d="M 0 0 
L -3.5 0 
" id="m26363ca658" style="stroke:#000000;stroke-width:0.8;"/>
      </defs>
      <g>
       <use style="stroke:#000000;stroke-width:0.8;" x="52.7325" xlink:href="#m26363ca658" y="292.644"/>
      </g>
     </g>
     <g id="text_12">
      <!-- 0.0 -->
      <g transform="translate(25.7325 298.199)scale(0.16 -0.16)">
       <use xlink:href="#TimesNewRomanPSMT-30"/>
       <use x="50" xlink:href="#TimesNewRomanPSMT-2e"/>
       <use x="75" xlink:href="#TimesNewRomanPSMT-30"/>
      </g>
     </g>
    </g>
    <g id="ytick_2">
     <g id="line2d_23">
      <path clip-path="url(#p92daca8748)" d="M 52.7325 266.0328 
L 409.8525 266.0328 
" style="fill:none;stroke:#b0b0b0;stroke-linecap:square;stroke-width:0.8;"/>
     </g>
     <g id="line2d_24">
      <g>
       <use style="stroke:#000000;stroke-width:0.8;" x="52.7325" xlink:href="#m26363ca658" y="266.0328"/>
      </g>
     </g>
     <g id="text_13">
      <!-- 0.1 -->
      <g transform="translate(25.7325 271.5878)scale(0.16 -0.16)">
       <use xlink:href="#TimesNewRomanPSMT-30"/>
       <use x="50" xlink:href="#TimesNewRomanPSMT-2e"/>
       <use x="75" xlink:href="#TimesNewRomanPSMT-31"/>
      </g>
     </g>
    </g>
    <g id="ytick_3">
     <g id="line2d_25">
      <path clip-path="url(#p92daca8748)" d="M 52.7325 239.4216 
L 409.8525 239.4216 
" style="fill:none;stroke:#b0b0b0;stroke-linecap:square;stroke-width:0.8;"/>
     </g>
     <g id="line2d_26">
      <g>
       <use style="stroke:#000000;stroke-width:0.8;" x="52.7325" xlink:href="#m26363ca658" y="239.4216"/>
      </g>
     </g>
     <g id="text_14">
      <!-- 0.2 -->
      <g transform="translate(25.7325 244.9766)scale(0.16 -0.16)">
       <use xlink:href="#TimesNewRomanPSMT-30"/>
       <use x="50" xlink:href="#TimesNewRomanPSMT-2e"/>
       <use x="75" xlink:href="#TimesNewRomanPSMT-32"/>
      </g>
     </g>
    </g>
    <g id="ytick_4">
     <g id="line2d_27">
      <path clip-path="url(#p92daca8748)" d="M 52.7325 212.8104 
L 409.8525 212.8104 
" style="fill:none;stroke:#b0b0b0;stroke-linecap:square;stroke-width:0.8;"/>
     </g>
     <g id="line2d_28">
      <g>
       <use style="stroke:#000000;stroke-width:0.8;" x="52.7325" xlink:href="#m26363ca658" y="212.8104"/>
      </g>
     </g>
     <g id="text_15">
      <!-- 0.3 -->
      <g transform="translate(25.7325 218.3654)scale(0.16 -0.16)">
       <use xlink:href="#TimesNewRomanPSMT-30"/>
       <use x="50" xlink:href="#TimesNewRomanPSMT-2e"/>
       <use x="75" xlink:href="#TimesNewRomanPSMT-33"/>
      </g>
     </g>
    </g>
    <g id="ytick_5">
     <g id="line2d_29">
      <path clip-path="url(#p92daca8748)" d="M 52.7325 186.1992 
L 409.8525 186.1992 
" style="fill:none;stroke:#b0b0b0;stroke-linecap:square;stroke-width:0.8;"/>
     </g>
     <g id="line2d_30">
      <g>
       <use style="stroke:#000000;stroke-width:0.8;" x="52.7325" xlink:href="#m26363ca658" y="186.1992"/>
      </g>
     </g>
     <g id="text_16">
      <!-- 0.4 -->
      <g transform="translate(25.7325 191.7542)scale(0.16 -0.16)">
       <use xlink:href="#TimesNewRomanPSMT-30"/>
       <use x="50" xlink:href="#TimesNewRomanPSMT-2e"/>
       <use x="75" xlink:href="#TimesNewRomanPSMT-34"/>
      </g>
     </g>
    </g>
    <g id="ytick_6">
     <g id="line2d_31">
      <path clip-path="url(#p92daca8748)" d="M 52.7325 159.588 
L 409.8525 159.588 
" style="fill:none;stroke:#b0b0b0;stroke-linecap:square;stroke-width:0.8;"/>
     </g>
     <g id="line2d_32">
      <g>
       <use style="stroke:#000000;stroke-width:0.8;" x="52.7325" xlink:href="#m26363ca658" y="159.588"/>
      </g>
     </g>
     <g id="text_17">
      <!-- 0.5 -->
      <g transform="translate(25.7325 165.143)scale(0.16 -0.16)">
       <use xlink:href="#TimesNewRomanPSMT-30"/>
       <use x="50" xlink:href="#TimesNewRomanPSMT-2e"/>
       <use x="75" xlink:href="#TimesNewRomanPSMT-35"/>
      </g>
     </g>
    </g>
    <g id="ytick_7">
     <g id="line2d_33">
      <path clip-path="url(#p92daca8748)" d="M 52.7325 132.9768 
L 409.8525 132.9768 
" style="fill:none;stroke:#b0b0b0;stroke-linecap:square;stroke-width:0.8;"/>
     </g>
     <g id="line2d_34">
      <g>
       <use style="stroke:#000000;stroke-width:0.8;" x="52.7325" xlink:href="#m26363ca658" y="132.9768"/>
      </g>
     </g>
     <g id="text_18">
      <!-- 0.6 -->
      <g transform="translate(25.7325 138.5318)scale(0.16 -0.16)">
       <use xlink:href="#TimesNewRomanPSMT-30"/>
       <use x="50" xlink:href="#TimesNewRomanPSMT-2e"/>
       <use x="75" xlink:href="#TimesNewRomanPSMT-36"/>
      </g>
     </g>
    </g>
    <g id="ytick_8">
     <g id="line2d_35">
      <path clip-path="url(#p92daca8748)" d="M 52.7325 106.3656 
L 409.8525 106.3656 
" style="fill:none;stroke:#b0b0b0;stroke-linecap:square;stroke-width:0.8;"/>
     </g>
     <g id="line2d_36">
      <g>
       <use style="stroke:#000000;stroke-width:0.8;" x="52.7325" xlink:href="#m26363ca658" y="106.3656"/>
      </g>
     </g>
     <g id="text_19">
      <!-- 0.7 -->
      <g transform="translate(25.7325 111.9206)scale(0.16 -0.16)">
       <use xlink:href="#TimesNewRomanPSMT-30"/>
       <use x="50" xlink:href="#TimesNewRomanPSMT-2e"/>
       <use x="75" xlink:href="#TimesNewRomanPSMT-37"/>
      </g>
     </g>
    </g>
    <g id="ytick_9">
     <g id="line2d_37">
      <path clip-path="url(#p92daca8748)" d="M 52.7325 79.7544 
L 409.8525 79.7544 
" style="fill:none;stroke:#b0b0b0;stroke-linecap:square;stroke-width:0.8;"/>
     </g>
     <g id="line2d_38">
      <g>
       <use style="stroke:#000000;stroke-width:0.8;" x="52.7325" xlink:href="#m26363ca658" y="79.7544"/>
      </g>
     </g>
     <g id="text_20">
      <!-- 0.8 -->
      <g transform="translate(25.7325 85.3094)scale(0.16 -0.16)">
       <use xlink:href="#TimesNewRomanPSMT-30"/>
       <use x="50" xlink:href="#TimesNewRomanPSMT-2e"/>
       <use x="75" xlink:href="#TimesNewRomanPSMT-38"/>
      </g>
     </g>
    </g>
    <g id="ytick_10">
     <g id="line2d_39">
      <path clip-path="url(#p92daca8748)" d="M 52.7325 53.1432 
L 409.8525 53.1432 
" style="fill:none;stroke:#b0b0b0;stroke-linecap:square;stroke-width:0.8;"/>
     </g>
     <g id="line2d_40">
      <g>
       <use style="stroke:#000000;stroke-width:0.8;" x="52.7325" xlink:href="#m26363ca658" y="53.1432"/>
      </g>
     </g>
     <g id="text_21">
      <!-- 0.9 -->
      <g transform="translate(25.7325 58.6982)scale(0.16 -0.16)">
       <use xlink:href="#TimesNewRomanPSMT-30"/>
       <use x="50" xlink:href="#TimesNewRomanPSMT-2e"/>
       <use x="75" xlink:href="#TimesNewRomanPSMT-39"/>
      </g>
     </g>
    </g>
    <g id="text_22">
     <!-- Precision -->
     <defs>
      <path d="M 20.515625 31 
L 20.515625 11.71875 
Q 20.515625 5.46875 21.875 3.953125 
Q 23.734375 1.8125 27.484375 1.8125 
L 30.03125 1.8125 
L 30.03125 0 
L 1.65625 0 
L 1.65625 1.8125 
L 4.15625 1.8125 
Q 8.34375 1.8125 10.15625 4.546875 
Q 11.140625 6.0625 11.140625 11.71875 
L 11.140625 54.5 
Q 11.140625 60.75 9.8125 62.25 
Q 7.90625 64.40625 4.15625 64.40625 
L 1.65625 64.40625 
L 1.65625 66.21875 
L 25.921875 66.21875 
Q 34.8125 66.21875 39.9375 64.375 
Q 45.0625 62.546875 48.578125 58.203125 
Q 52.09375 53.859375 52.09375 47.90625 
Q 52.09375 39.796875 46.75 34.71875 
Q 41.40625 29.640625 31.640625 29.640625 
Q 29.25 29.640625 26.46875 29.984375 
Q 23.6875 30.328125 20.515625 31 
z
M 20.515625 33.796875 
Q 23.09375 33.296875 25.09375 33.046875 
Q 27.09375 32.8125 28.515625 32.8125 
Q 33.59375 32.8125 37.28125 36.734375 
Q 40.96875 40.671875 40.96875 46.921875 
Q 40.96875 51.21875 39.203125 54.90625 
Q 37.453125 58.59375 34.21875 60.421875 
Q 31 62.25 26.90625 62.25 
Q 24.421875 62.25 20.515625 61.328125 
z
" id="TimesNewRomanPSMT-50"/>
      <path d="M 16.21875 46.046875 
L 16.21875 35.984375 
Q 21.828125 46.046875 27.734375 46.046875 
Q 30.421875 46.046875 32.171875 44.40625 
Q 33.9375 42.78125 33.9375 40.625 
Q 33.9375 38.71875 32.65625 37.390625 
Q 31.390625 36.078125 29.640625 36.078125 
Q 27.9375 36.078125 25.8125 37.765625 
Q 23.6875 39.453125 22.65625 39.453125 
Q 21.78125 39.453125 20.75 38.484375 
Q 18.5625 36.46875 16.21875 31.890625 
L 16.21875 10.453125 
Q 16.21875 6.734375 17.140625 4.828125 
Q 17.78125 3.515625 19.390625 2.640625 
Q 21 1.765625 24.03125 1.765625 
L 24.03125 0 
L 1.125 0 
L 1.125 1.765625 
Q 4.546875 1.765625 6.203125 2.828125 
Q 7.421875 3.609375 7.90625 5.328125 
Q 8.15625 6.15625 8.15625 10.0625 
L 8.15625 27.390625 
Q 8.15625 35.203125 7.828125 36.6875 
Q 7.515625 38.1875 6.65625 38.859375 
Q 5.8125 39.546875 4.546875 39.546875 
Q 3.03125 39.546875 1.125 38.8125 
L 0.640625 40.578125 
L 14.15625 46.046875 
z
" id="TimesNewRomanPSMT-72"/>
      <path d="M 14.5 69.4375 
Q 16.546875 69.4375 17.984375 67.984375 
Q 19.4375 66.546875 19.4375 64.5 
Q 19.4375 62.453125 17.984375 60.984375 
Q 16.546875 59.515625 14.5 59.515625 
Q 12.453125 59.515625 10.984375 60.984375 
Q 9.515625 62.453125 9.515625 64.5 
Q 9.515625 66.546875 10.953125 67.984375 
Q 12.40625 69.4375 14.5 69.4375 
z
M 18.5625 46.046875 
L 18.5625 10.109375 
Q 18.5625 5.90625 19.171875 4.515625 
Q 19.78125 3.125 20.96875 2.4375 
Q 22.171875 1.765625 25.34375 1.765625 
L 25.34375 0 
L 3.609375 0 
L 3.609375 1.765625 
Q 6.890625 1.765625 8 2.390625 
Q 9.125 3.03125 9.78125 4.484375 
Q 10.453125 5.953125 10.453125 10.109375 
L 10.453125 27.34375 
Q 10.453125 34.625 10.015625 36.765625 
Q 9.671875 38.328125 8.9375 38.9375 
Q 8.203125 39.546875 6.9375 39.546875 
Q 5.5625 39.546875 3.609375 38.8125 
L 2.9375 40.578125 
L 16.40625 46.046875 
z
" id="TimesNewRomanPSMT-69"/>
      <path d="M 32.03125 46.046875 
L 32.03125 30.8125 
L 30.421875 30.8125 
Q 28.5625 37.984375 25.65625 40.578125 
Q 22.75 43.171875 18.265625 43.171875 
Q 14.84375 43.171875 12.734375 41.359375 
Q 10.640625 39.546875 10.640625 37.359375 
Q 10.640625 34.625 12.203125 32.671875 
Q 13.71875 30.671875 18.359375 28.421875 
L 25.484375 24.953125 
Q 35.40625 20.125 35.40625 12.203125 
Q 35.40625 6.109375 30.78125 2.359375 
Q 26.171875 -1.375 20.453125 -1.375 
Q 16.359375 -1.375 11.078125 0.09375 
Q 9.46875 0.59375 8.453125 0.59375 
Q 7.328125 0.59375 6.6875 -0.6875 
L 5.078125 -0.6875 
L 5.078125 15.28125 
L 6.6875 15.28125 
Q 8.0625 8.453125 11.90625 4.984375 
Q 15.765625 1.515625 20.5625 1.515625 
Q 23.921875 1.515625 26.046875 3.484375 
Q 28.171875 5.46875 28.171875 8.25 
Q 28.171875 11.625 25.796875 13.921875 
Q 23.4375 16.21875 16.359375 19.734375 
Q 9.28125 23.25 7.078125 26.078125 
Q 4.890625 28.859375 4.890625 33.109375 
Q 4.890625 38.625 8.671875 42.328125 
Q 12.453125 46.046875 18.453125 46.046875 
Q 21.09375 46.046875 24.859375 44.921875 
Q 27.34375 44.1875 28.171875 44.1875 
Q 28.953125 44.1875 29.390625 44.53125 
Q 29.828125 44.875 30.421875 46.046875 
z
" id="TimesNewRomanPSMT-73"/>
      <path d="M 25 46.046875 
Q 35.15625 46.046875 41.3125 38.328125 
Q 46.53125 31.734375 46.53125 23.1875 
Q 46.53125 17.1875 43.640625 11.03125 
Q 40.765625 4.890625 35.71875 1.75 
Q 30.671875 -1.375 24.46875 -1.375 
Q 14.359375 -1.375 8.40625 6.6875 
Q 3.375 13.484375 3.375 21.921875 
Q 3.375 28.078125 6.421875 34.15625 
Q 9.46875 40.234375 14.453125 43.140625 
Q 19.4375 46.046875 25 46.046875 
z
M 23.484375 42.875 
Q 20.90625 42.875 18.28125 41.328125 
Q 15.671875 39.796875 14.0625 35.9375 
Q 12.453125 32.078125 12.453125 26.03125 
Q 12.453125 16.265625 16.328125 9.171875 
Q 20.21875 2.09375 26.5625 2.09375 
Q 31.296875 2.09375 34.375 6 
Q 37.453125 9.90625 37.453125 19.4375 
Q 37.453125 31.34375 32.328125 38.1875 
Q 28.859375 42.875 23.484375 42.875 
z
" id="TimesNewRomanPSMT-6f"/>
      <path d="M 16.15625 36.578125 
Q 24.03125 46.046875 31.15625 46.046875 
Q 34.8125 46.046875 37.453125 44.21875 
Q 40.09375 42.390625 41.65625 38.1875 
Q 42.71875 35.25 42.71875 29.203125 
L 42.71875 10.109375 
Q 42.71875 5.859375 43.40625 4.34375 
Q 43.953125 3.125 45.140625 2.4375 
Q 46.34375 1.765625 49.5625 1.765625 
L 49.5625 0 
L 27.4375 0 
L 27.4375 1.765625 
L 28.375 1.765625 
Q 31.5 1.765625 32.734375 2.703125 
Q 33.984375 3.65625 34.46875 5.515625 
Q 34.671875 6.25 34.671875 10.109375 
L 34.671875 28.421875 
Q 34.671875 34.515625 33.078125 37.28125 
Q 31.5 40.046875 27.734375 40.046875 
Q 21.921875 40.046875 16.15625 33.6875 
L 16.15625 10.109375 
Q 16.15625 5.5625 16.703125 4.5 
Q 17.390625 3.078125 18.578125 2.421875 
Q 19.78125 1.765625 23.4375 1.765625 
L 23.4375 0 
L 1.3125 0 
L 1.3125 1.765625 
L 2.296875 1.765625 
Q 5.71875 1.765625 6.90625 3.484375 
Q 8.109375 5.21875 8.109375 10.109375 
L 8.109375 26.703125 
Q 8.109375 34.765625 7.734375 36.515625 
Q 7.375 38.28125 6.609375 38.90625 
Q 5.859375 39.546875 4.59375 39.546875 
Q 3.21875 39.546875 1.3125 38.8125 
L 0.59375 40.578125 
L 14.0625 46.046875 
L 16.15625 46.046875 
z
" id="TimesNewRomanPSMT-6e"/>
     </defs>
     <g transform="translate(18.31 189.36175)rotate(-90)scale(0.16 -0.16)">
      <use xlink:href="#TimesNewRomanPSMT-50"/>
      <use x="55.615234" xlink:href="#TimesNewRomanPSMT-72"/>
      <use x="88.916016" xlink:href="#TimesNewRomanPSMT-65"/>
      <use x="133.300781" xlink:href="#TimesNewRomanPSMT-63"/>
      <use x="177.685547" xlink:href="#TimesNewRomanPSMT-69"/>
      <use x="205.46875" xlink:href="#TimesNewRomanPSMT-73"/>
      <use x="244.384766" xlink:href="#TimesNewRomanPSMT-69"/>
      <use x="272.167969" xlink:href="#TimesNewRomanPSMT-6f"/>
      <use x="322.167969" xlink:href="#TimesNewRomanPSMT-6e"/>
     </g>
    </g>
   </g>
   <g id="line2d_41">
    <path clip-path="url(#p92daca8748)" d="M 55.799054 64.092124 
L 58.865608 65.799941 
L 61.932162 68.189646 
L 64.998715 70.608743 
L 68.065269 72.611665 
L 71.131823 74.229962 
L 74.198377 75.562199 
L 77.264931 76.706941 
L 80.331485 77.762369 
L 83.398039 78.793517 
L 86.464593 79.807216 
L 89.531146 80.804401 
L 92.5977 81.786004 
L 95.664254 82.752961 
L 98.730808 83.706204 
L 101.797362 84.646667 
L 104.863916 85.575285 
L 107.93047 86.492991 
L 110.997023 87.400613 
L 114.063577 88.298622 
L 117.130131 89.187418 
L 120.196685 90.067399 
L 123.263239 90.938965 
L 126.329793 91.802514 
L 129.396347 92.658447 
L 132.4629 93.50716 
L 135.529454 94.349055 
L 138.596008 95.184528 
L 141.662562 96.013981 
L 144.729116 96.837811 
L 147.79567 97.656417 
L 150.862224 98.470199 
L 153.928778 99.279555 
L 156.995331 100.084885 
L 160.061885 100.886587 
L 163.128439 101.68506 
L 166.194993 102.480704 
L 169.261547 103.273917 
L 172.328101 104.065099 
L 175.394655 104.854648 
L 178.461208 105.642963 
L 181.527762 106.430444 
L 184.594316 107.217488 
L 187.66087 108.004497 
L 190.727424 108.791867 
L 193.793978 109.579998 
L 196.860532 110.36929 
L 199.927086 111.160141 
L 202.993639 111.95295 
L 206.060193 112.748117 
L 209.126747 113.546039 
L 212.193301 114.347117 
L 215.259855 115.151749 
L 218.326409 115.960334 
L 221.392963 116.773271 
L 224.459516 117.590959 
L 227.52607 118.413797 
L 230.592624 119.242184 
L 233.659178 120.076519 
L 236.725732 120.917201 
L 239.792286 121.764629 
L 242.85884 122.619202 
L 245.925394 123.481319 
L 248.991947 124.351379 
L 252.058501 125.229781 
L 255.125055 126.116924 
L 258.191609 127.013207 
L 261.258163 127.919028 
L 264.324717 128.834788 
L 267.391271 129.760884 
L 270.457824 130.697716 
L 273.524378 131.645964 
L 276.590932 132.607412 
L 279.657486 133.584113 
L 282.72404 134.57812 
L 285.790594 135.591485 
L 288.857148 136.626263 
L 291.923701 137.684506 
L 294.990255 138.768267 
L 298.056809 139.8796 
L 301.123363 141.020558 
L 304.189917 142.193193 
L 307.256471 143.399559 
L 310.323025 144.641709 
L 313.389579 145.921697 
L 316.456132 147.241574 
L 319.522686 148.603395 
L 322.58924 150.009213 
L 325.655794 151.46108 
L 328.722348 152.961051 
L 331.788902 154.511177 
L 334.855456 156.113512 
L 337.922009 157.77011 
L 340.988563 159.483022 
L 344.055117 161.254304 
L 347.121671 163.086007 
L 350.188225 164.980184 
L 353.254779 166.93889 
L 356.321333 168.964176 
" style="fill:none;stroke:#1f77b4;stroke-linecap:square;stroke-width:3;"/>
   </g>
   <g id="line2d_42">
    <path clip-path="url(#p92daca8748)" d="M 52.7325 68.83224 
L 55.893345 68.833585 
L 59.054189 68.834872 
L 62.215034 68.8361 
L 65.375879 68.83727 
L 68.536723 68.838382 
L 71.697568 68.839435 
L 74.858413 68.84043 
L 78.019258 68.841367 
L 81.180102 68.842246 
L 84.340947 68.843066 
L 87.501792 68.843828 
L 90.662636 68.844532 
L 93.823481 68.845178 
L 96.984326 68.845765 
L 100.14517 68.846294 
L 103.306015 68.846765 
L 106.46686 68.847177 
L 109.627704 68.847531 
L 112.788549 68.847827 
L 115.949394 68.848065 
L 119.110239 68.848245 
L 122.271083 68.848366 
L 125.431928 68.848429 
L 128.592773 68.848433 
L 131.753617 68.84838 
L 134.914462 68.848268 
L 138.075307 68.848097 
L 141.236151 68.847869 
L 144.396996 68.847582 
L 147.557841 68.847237 
L 150.718685 68.846834 
L 153.87953 68.846373 
L 157.040375 68.845853 
L 160.20122 68.845275 
L 163.362064 68.844638 
L 166.522909 68.843944 
L 169.683754 68.843191 
L 172.844598 68.84238 
L 176.005443 68.84151 
L 179.166288 68.840583 
L 182.327132 68.839597 
L 185.487977 68.838553 
L 188.648822 68.83745 
L 191.809667 68.836289 
L 194.970511 68.83507 
L 198.131356 68.833793 
L 201.292201 68.832458 
L 204.453045 69.213483 
L 207.61389 69.206647 
L 210.774735 69.257946 
L 213.935579 69.287927 
L 217.096424 69.291325 
L 220.257269 69.282943 
L 223.418113 69.269656 
L 226.578958 69.251466 
L 229.739803 69.235345 
L 232.900648 69.304311 
L 236.061492 69.482507 
L 239.222337 69.769933 
L 242.383182 70.155282 
L 245.544026 70.572368 
L 248.704871 71.010429 
L 251.865716 71.469468 
L 255.02656 71.949482 
L 258.187405 72.484858 
L 261.34825 73.140442 
L 264.509094 73.917759 
L 267.669939 74.816806 
L 270.830784 75.837586 
L 273.991629 76.970165 
L 277.152473 78.19888 
L 280.313318 79.523538 
L 283.474163 80.94414 
L 286.635007 82.460685 
L 289.795852 84.073174 
L 292.956697 85.796728 
L 296.117541 87.700223 
L 299.278386 89.792132 
L 302.439231 92.072457 
L 305.600075 94.541197 
L 308.76092 97.198352 
L 311.921765 100.043923 
L 315.08261 103.077908 
L 318.243454 106.300308 
L 321.404299 109.712655 
L 324.565144 113.354337 
L 327.725988 117.242637 
L 330.886833 121.377554 
L 334.047678 125.75909 
L 337.208522 130.387243 
L 340.369367 135.262015 
L 343.530212 140.383405 
L 346.691056 145.751412 
L 349.851901 151.364878 
L 353.012746 157.21607 
L 356.173591 163.30356 
L 359.334435 169.627346 
L 362.49528 176.187431 
L 365.656125 183.020187 
" style="fill:none;stroke:#ff7f0e;stroke-linecap:square;stroke-width:3;"/>
   </g>
   <g id="line2d_43">
    <path clip-path="url(#p92daca8748)" d="M 55.488273 31.95034 
L 58.244046 33.715721 
L 60.999819 35.078948 
L 63.755592 36.09896 
L 66.511365 36.834692 
L 69.267138 37.345081 
L 72.022912 37.689063 
L 74.778685 37.925575 
L 77.534458 38.113549 
L 80.290231 38.298821 
L 83.046004 38.485733 
L 85.801777 38.670426 
L 88.55755 38.84904 
L 91.313323 39.017718 
L 94.069096 39.172598 
L 96.824869 39.311158 
L 99.580642 39.439421 
L 102.336415 39.566784 
L 105.092189 39.702654 
L 107.847962 39.856434 
L 110.603735 40.037531 
L 113.359508 40.255242 
L 116.115281 40.513087 
L 118.871054 40.805984 
L 121.626827 41.128152 
L 124.3826 41.473808 
L 127.138373 41.83717 
L 129.894146 42.212457 
L 132.649919 42.593886 
L 135.405692 42.975675 
L 138.161466 43.352042 
L 140.917239 43.717206 
L 143.673012 44.065384 
L 146.428785 44.390795 
L 149.184558 44.688412 
L 151.940331 44.959425 
L 154.696104 45.208073 
L 157.451877 45.438616 
L 160.20765 45.655314 
L 162.963423 45.862429 
L 165.719196 46.06422 
L 168.474969 46.264947 
L 171.230743 46.468872 
L 173.986516 46.680254 
L 176.742289 46.903353 
L 179.498062 47.142331 
L 182.253835 47.399086 
L 185.009608 47.673276 
L 187.765381 47.964463 
L 190.521154 48.272207 
L 193.276927 48.596072 
L 196.0327 48.935618 
L 198.788473 49.290408 
L 201.544246 49.660003 
L 204.300019 50.043949 
L 207.055793 50.440641 
L 209.811566 50.84658 
L 212.567339 51.258092 
L 215.323112 51.671502 
L 218.078885 52.083136 
L 220.834658 52.489319 
L 223.590431 52.886377 
L 226.346204 53.272088 
L 229.101977 53.649027 
L 231.85775 54.020756 
L 234.613523 54.390838 
L 237.369296 54.762838 
L 240.12507 55.140324 
L 242.880843 55.527506 
L 245.636616 55.929747 
L 248.392389 56.352531 
L 251.148162 56.801343 
L 253.903935 57.281355 
L 256.659708 57.78942 
L 259.415481 58.313367 
L 262.171254 58.840572 
L 264.927027 59.35893 
L 267.6828 59.867083 
L 270.438573 60.373785 
L 273.194347 60.888184 
L 275.95012 61.41943 
L 278.705893 61.976671 
L 281.461666 62.569055 
L 284.217439 63.205731 
L 286.973212 63.895847 
L 289.728985 64.648552 
L 292.484758 65.472995 
L 295.240531 66.378323 
L 297.996304 67.373848 
L 300.752077 68.469588 
L 303.50785 69.675761 
L 306.263624 71.002582 
L 309.019397 72.460308 
L 311.77517 74.091063 
L 314.530943 76.026087 
L 317.286716 78.409122 
L 320.042489 81.299856 
L 322.798262 84.696599 
L 325.554035 88.812716 
" style="fill:none;stroke:#2ca02c;stroke-linecap:square;stroke-width:3;"/>
   </g>
   <g id="line2d_44">
    <path clip-path="url(#p92daca8748)" d="M 56.154896 27.488411 
L 59.577291 28.340188 
L 62.999687 29.079271 
L 66.422082 29.71625 
L 69.844478 30.261716 
L 73.266874 30.726261 
L 76.689269 31.120474 
L 80.111665 31.454947 
L 83.534061 31.740271 
L 86.956456 31.987036 
L 90.378852 32.205833 
L 93.801247 32.407253 
L 97.223643 32.601887 
L 100.646039 32.800313 
L 104.068434 33.010156 
L 107.49083 33.232225 
L 110.913226 33.466372 
L 114.335621 33.712447 
L 117.758017 33.970304 
L 121.180412 34.239793 
L 124.602808 34.520765 
L 128.025204 34.813074 
L 131.447599 35.116569 
L 134.869995 35.431104 
L 138.292391 35.756529 
L 141.714786 36.092695 
L 145.137182 36.439456 
L 148.559577 36.796662 
L 151.981973 37.164165 
L 155.404369 37.541816 
L 158.826764 37.929468 
L 162.24916 38.326971 
L 165.671556 38.734178 
L 169.093951 39.15094 
L 172.516347 39.577109 
L 175.938742 40.012535 
L 179.361138 40.457072 
L 182.783534 40.91057 
L 186.205929 41.372881 
L 189.628325 41.843857 
L 193.050721 42.32335 
L 196.473116 42.81121 
L 199.895512 43.30729 
L 203.317907 43.811441 
L 206.740303 44.323516 
L 210.162699 44.843364 
L 213.585094 45.370839 
L 217.00749 45.905791 
L 220.429886 46.448073 
L 223.852281 46.997535 
L 227.274677 47.55403 
L 230.697072 48.11741 
L 234.119468 48.687525 
L 237.541864 49.264227 
L 240.964259 49.847388 
L 244.386655 50.437357 
L 247.80905 51.034996 
L 251.231446 51.64119 
L 254.653842 52.256827 
L 258.076237 52.882792 
L 261.498633 53.51997 
L 264.921029 54.169248 
L 268.343424 54.831512 
L 271.76582 55.507647 
L 275.188215 56.19854 
L 278.610611 56.905076 
L 282.033007 57.628141 
L 285.455402 58.368622 
L 288.877798 59.127404 
L 292.300194 59.905373 
L 295.722589 60.703416 
L 299.144985 61.52314 
L 302.56738 62.371018 
L 305.989776 63.255525 
L 309.412172 64.18514 
L 312.834567 65.168345 
L 316.256963 66.213621 
L 319.679359 67.329449 
L 323.101754 68.524309 
L 326.52415 69.806683 
L 329.946545 71.185052 
L 333.368941 72.667896 
L 336.791337 74.263696 
L 340.213732 75.980934 
L 343.636128 77.82809 
L 347.058524 79.813645 
L 350.480919 81.946081 
L 353.903315 84.233877 
L 357.32571 86.688685 
L 360.748106 89.352694 
L 364.170502 92.28517 
L 367.592897 95.545562 
L 371.015293 99.192982 
L 374.437689 103.277416 
L 377.860084 107.838912 
L 381.28248 112.917014 
L 384.704875 118.863138 
L 388.127271 127.633838 
L 391.549667 140.806097 
" style="fill:none;stroke:#d62728;stroke-linecap:square;stroke-width:3;"/>
   </g>
   <g id="line2d_45">
    <path clip-path="url(#p92daca8748)" d="M 92.380108 24.5608 
L 99.59539 180.807388 
L 106.810671 214.2888 
L 114.025953 228.883262 
L 121.241235 237.05616 
L 128.456516 242.281456 
L 135.671798 245.910133 
L 142.88708 248.576993 
L 150.102361 250.619694 
L 157.317643 252.2344 
L 164.532924 253.542869 
L 171.748206 254.624674 
L 178.963488 255.534017 
L 186.178769 256.309095 
L 193.394051 256.9776 
L 200.609333 257.560098 
L 207.824614 258.072185 
L 215.039896 258.525898 
L 222.255178 258.930682 
L 229.470459 259.294047 
L 236.685741 259.622039 
L 243.901022 259.919585 
L 251.116304 260.190735 
L 258.331586 260.438854 
L 265.546867 260.666756 
L 272.762149 260.876814 
L 279.977431 261.071047 
L 287.192712 261.251176 
L 294.407994 261.418685 
L 301.623276 261.574855 
L 308.838557 261.7208 
L 316.053839 261.857492 
L 323.26912 261.985783 
L 330.484402 262.106426 
L 337.699684 262.220084 
L 344.914965 262.327347 
L 352.130247 262.42874 
L 359.345529 262.524732 
L 366.56081 262.615743 
L 373.776092 262.702152 
L 380.991373 262.784298 
L 388.206655 262.862489 
L 395.421937 262.937005 
L 402.637218 263.008099 
L 409.8525 263.076 
" style="fill:none;opacity:0.3;stroke:#008000;stroke-linecap:square;stroke-width:1.5;"/>
   </g>
   <g id="line2d_46">
    <path clip-path="url(#p92daca8748)" d="M 112.940971 -1 
L 114.025953 65.896085 
L 121.241235 143.748 
L 128.456516 176.128885 
L 135.671798 193.871836 
L 142.88708 205.072693 
L 150.102361 212.786491 
L 157.317643 218.422286 
L 164.532924 222.720086 
L 171.748206 226.105814 
L 178.963488 228.841953 
L 186.178769 231.099088 
L 193.394051 232.992878 
L 200.609333 234.604524 
L 207.824614 235.992706 
L 215.039896 237.200888 
L 222.255178 238.261948 
L 229.470459 239.201217 
L 236.685741 240.038526 
L 243.901022 240.789622 
L 251.116304 241.467169 
L 258.331586 242.081465 
L 265.546867 242.640973 
L 272.762149 243.152709 
L 279.977431 243.622541 
L 287.192712 244.055414 
L 294.407994 244.455523 
L 301.623276 244.826453 
L 308.838557 245.171284 
L 316.053839 245.492676 
L 323.26912 245.79294 
L 330.484402 246.074095 
L 337.699684 246.337907 
L 344.914965 246.585933 
L 352.130247 246.819549 
L 359.345529 247.039976 
L 366.56081 247.2483 
L 373.776092 247.44549 
L 380.991373 247.632416 
L 388.206655 247.80986 
L 395.421937 247.978525 
L 402.637218 248.139046 
L 409.8525 248.292 
" style="fill:none;opacity:0.3;stroke:#008000;stroke-linecap:square;stroke-width:1.5;"/>
   </g>
   <g id="line2d_47">
    <path clip-path="url(#p92daca8748)" d="M 133.432847 -1 
L 135.671798 45.973516 
L 142.88708 105.69131 
L 150.102361 137.652946 
L 157.317643 157.56048 
L 164.532924 171.1512 
L 171.748206 181.01998 
L 178.963488 188.511609 
L 186.178769 194.392659 
L 193.394051 199.132094 
L 200.609333 203.032916 
L 207.824614 206.299614 
L 215.039896 209.075191 
L 222.255178 211.462658 
L 229.470459 213.538099 
L 236.685741 215.358932 
L 243.901022 216.969302 
L 251.116304 218.403703 
L 258.331586 219.689486 
L 265.546867 220.848609 
L 272.762149 221.89891 
L 279.977431 222.855026 
L 287.192712 223.729083 
L 294.407994 224.53121 
L 301.623276 225.269935 
L 308.838557 225.95249 
L 316.053839 226.585047 
L 323.26912 227.172904 
L 330.484402 227.72064 
L 337.699684 228.232224 
L 344.914965 228.711123 
L 352.130247 229.160371 
L 359.345529 229.582639 
L 366.56081 229.980288 
L 373.776092 230.355409 
L 380.991373 230.709864 
L 388.206655 231.045315 
L 395.421937 231.363251 
L 402.637218 231.665007 
L 409.8525 231.951789 
" style="fill:none;opacity:0.3;stroke:#008000;stroke-linecap:square;stroke-width:1.5;"/>
   </g>
   <g id="line2d_48">
    <path clip-path="url(#p92daca8748)" d="M 156.11298 -1 
L 157.317643 15.5496 
L 164.532924 67.266052 
L 171.748206 99.021768 
L 178.963488 120.503576 
L 186.178769 136.003109 
L 193.394051 147.713867 
L 200.609333 156.873766 
L 207.824614 164.2344 
L 215.039896 170.278498 
L 222.255178 175.330281 
L 229.470459 179.615586 
L 236.685741 183.296554 
L 243.901022 186.492604 
L 251.116304 189.293636 
L 258.331586 191.768622 
L 265.546867 193.97136 
L 272.762149 195.944428 
L 279.977431 197.721968 
L 287.192712 199.33167 
L 294.407994 200.796236 
L 301.623276 202.134447 
L 308.838557 203.361979 
L 316.053839 204.492017 
L 323.26912 205.535733 
L 330.484402 206.502654 
L 337.699684 207.400955 
L 344.914965 208.23769 
L 352.130247 209.018978 
L 359.345529 209.750155 
L 366.56081 210.435892 
L 373.776092 211.080296 
L 380.991373 211.686996 
L 388.206655 212.259206 
L 395.421937 212.799787 
L 402.637218 213.31129 
L 409.8525 213.796 
" style="fill:none;opacity:0.3;stroke:#008000;stroke-linecap:square;stroke-width:1.5;"/>
   </g>
   <g id="line2d_49">
    <path clip-path="url(#p92daca8748)" d="M 181.646211 -1 
L 186.178769 28.664235 
L 193.394051 60.30288 
L 200.609333 82.979506 
L 207.824614 100.0296 
L 215.039896 113.316128 
L 222.255178 123.961359 
L 229.470459 132.681699 
L 236.685741 139.955952 
L 243.901022 146.116282 
L 251.116304 151.400359 
L 258.331586 155.982727 
L 265.546867 159.99446 
L 272.762149 163.535902 
L 279.977431 166.68517 
L 287.192712 169.503991 
L 294.407994 172.041781 
L 301.623276 174.338573 
L 308.838557 176.427138 
L 316.053839 178.334567 
L 323.26912 180.083444 
L 330.484402 181.692749 
L 337.699684 183.178549 
L 344.914965 184.554536 
L 352.130247 185.832451 
L 359.345529 187.022418 
L 366.56081 188.133213 
L 373.776092 189.172484 
L 380.991373 190.146923 
L 388.206655 191.062414 
L 395.421937 191.924148 
L 402.637218 192.736725 
L 409.8525 193.504235 
" style="fill:none;opacity:0.3;stroke:#008000;stroke-linecap:square;stroke-width:1.5;"/>
   </g>
   <g id="line2d_50">
    <path clip-path="url(#p92daca8748)" d="M 209.89003 -1 
L 215.039896 21.529603 
L 222.255178 45.143395 
L 229.470459 63.474102 
L 236.685741 78.116312 
L 243.901022 90.081553 
L 251.116304 100.042465 
L 258.331586 108.463751 
L 265.546867 115.676765 
L 272.762149 121.924143 
L 279.977431 127.387629 
L 287.192712 132.206052 
L 294.407994 136.487286 
L 301.623276 140.316422 
L 308.838557 143.761481 
L 316.053839 146.877489 
L 323.26912 149.709441 
L 330.484402 152.294486 
L 337.699684 154.663565 
L 344.914965 156.842657 
L 352.130247 158.853735 
L 359.345529 160.715509 
L 366.56081 162.44401 
L 373.776092 164.053055 
L 380.991373 165.554614 
L 388.206655 166.959108 
L 395.421937 168.275654 
L 402.637218 169.512263 
L 409.8525 170.676 
" style="fill:none;opacity:0.3;stroke:#008000;stroke-linecap:square;stroke-width:1.5;"/>
   </g>
   <g id="line2d_51">
    <path clip-path="url(#p92daca8748)" d="M 241.50606 -1 
L 243.901022 7.088536 
L 251.116304 26.492889 
L 258.331586 42.309882 
L 265.546867 55.450154 
L 272.762149 66.54017 
L 279.977431 76.025053 
L 287.192712 84.229767 
L 294.407994 91.397103 
L 301.623276 97.712108 
L 308.838557 103.318286 
L 316.053839 108.328638 
L 323.26912 112.833358 
L 330.484402 116.90531 
L 337.699684 120.604 
L 344.914965 123.978502 
L 352.130247 127.069649 
L 359.345529 129.911692 
L 366.56081 132.533577 
L 373.776092 134.959932 
L 380.991373 137.211843 
L 388.206655 139.30747 
L 395.421937 141.262537 
L 402.637218 143.090726 
L 409.8525 144.804 
" style="fill:none;opacity:0.3;stroke:#008000;stroke-linecap:square;stroke-width:1.5;"/>
   </g>
   <g id="line2d_52">
    <path clip-path="url(#p92daca8748)" d="M 276.964303 -1 
L 279.977431 6.033563 
L 287.192712 20.223219 
L 294.407994 32.340935 
L 301.623276 42.809641 
L 308.838557 51.944497 
L 316.053839 59.98516 
L 323.26912 67.117118 
L 330.484402 73.486176 
L 337.699684 79.208529 
L 344.914965 84.377917 
L 352.130247 89.070798 
L 359.345529 93.350153 
L 366.56081 97.268336 
L 373.776092 100.869217 
L 380.991373 104.189842 
L 388.206655 107.261702 
L 395.421937 110.111743 
L 402.637218 112.763154 
L 409.8525 115.236 
" style="fill:none;opacity:0.3;stroke:#008000;stroke-linecap:square;stroke-width:1.5;"/>
   </g>
   <g id="patch_3">
    <path d="M 52.7325 292.644 
L 52.7325 26.532 
" style="fill:none;stroke:#000000;stroke-linecap:square;stroke-linejoin:miter;stroke-width:0.8;"/>
   </g>
   <g id="patch_4">
    <path d="M 409.8525 292.644 
L 409.8525 26.532 
" style="fill:none;stroke:#000000;stroke-linecap:square;stroke-linejoin:miter;stroke-width:0.8;"/>
   </g>
   <g id="patch_5">
    <path d="M 52.7325 292.644 
L 409.8525 292.644 
" style="fill:none;stroke:#000000;stroke-linecap:square;stroke-linejoin:miter;stroke-width:0.8;"/>
   </g>
   <g id="patch_6">
    <path d="M 52.7325 26.532 
L 409.8525 26.532 
" style="fill:none;stroke:#000000;stroke-linecap:square;stroke-linejoin:miter;stroke-width:0.8;"/>
   </g>
   <g id="text_23">
    <!-- f=0.2 -->
    <defs>
     <path d="M 20.609375 41.21875 
L 20.609375 11.8125 
Q 20.609375 5.5625 21.96875 3.90625 
Q 23.78125 1.765625 26.8125 1.765625 
L 30.859375 1.765625 
L 30.859375 0 
L 4.15625 0 
L 4.15625 1.765625 
L 6.15625 1.765625 
Q 8.109375 1.765625 9.71875 2.734375 
Q 11.328125 3.71875 11.9375 5.375 
Q 12.546875 7.03125 12.546875 11.8125 
L 12.546875 41.21875 
L 3.859375 41.21875 
L 3.859375 44.734375 
L 12.546875 44.734375 
L 12.546875 47.65625 
Q 12.546875 54.34375 14.6875 58.984375 
Q 16.84375 63.625 21.265625 66.484375 
Q 25.6875 69.34375 31.203125 69.34375 
Q 36.328125 69.34375 40.625 66.015625 
Q 43.453125 63.8125 43.453125 61.078125 
Q 43.453125 59.625 42.1875 58.328125 
Q 40.921875 57.03125 39.453125 57.03125 
Q 38.328125 57.03125 37.078125 57.828125 
Q 35.84375 58.640625 34.03125 61.296875 
Q 32.234375 63.96875 30.71875 64.890625 
Q 29.203125 65.828125 27.34375 65.828125 
Q 25.09375 65.828125 23.53125 64.625 
Q 21.96875 63.421875 21.28125 60.90625 
Q 20.609375 58.40625 20.609375 47.953125 
L 20.609375 44.734375 
L 32.125 44.734375 
L 32.125 41.21875 
z
" id="TimesNewRomanPSMT-66"/>
     <path d="M 1.8125 43.109375 
L 54.5 43.109375 
L 54.5 39.109375 
L 1.8125 39.109375 
z
M 1.8125 27.203125 
L 54.5 27.203125 
L 54.5 23.1875 
L 1.8125 23.1875 
z
" id="TimesNewRomanPSMT-3d"/>
    </defs>
    <g style="opacity:0.4;" transform="translate(374.1405 257.462058)scale(0.16 -0.16)">
     <use xlink:href="#TimesNewRomanPSMT-66"/>
     <use x="33.300781" xlink:href="#TimesNewRomanPSMT-3d"/>
     <use x="89.697266" xlink:href="#TimesNewRomanPSMT-30"/>
     <use x="139.697266" xlink:href="#TimesNewRomanPSMT-2e"/>
     <use x="164.697266" xlink:href="#TimesNewRomanPSMT-32"/>
    </g>
   </g>
   <g id="text_24">
    <!-- f=0.3 -->
    <g style="opacity:0.4;" transform="translate(374.1405 242.310176)scale(0.16 -0.16)">
     <use xlink:href="#TimesNewRomanPSMT-66"/>
     <use x="33.300781" xlink:href="#TimesNewRomanPSMT-3d"/>
     <use x="89.697266" xlink:href="#TimesNewRomanPSMT-30"/>
     <use x="139.697266" xlink:href="#TimesNewRomanPSMT-2e"/>
     <use x="164.697266" xlink:href="#TimesNewRomanPSMT-33"/>
    </g>
   </g>
   <g id="text_25">
    <!-- f=0.4 -->
    <g style="opacity:0.4;" transform="translate(374.1405 225.387624)scale(0.16 -0.16)">
     <use xlink:href="#TimesNewRomanPSMT-66"/>
     <use x="33.300781" xlink:href="#TimesNewRomanPSMT-3d"/>
     <use x="89.697266" xlink:href="#TimesNewRomanPSMT-30"/>
     <use x="139.697266" xlink:href="#TimesNewRomanPSMT-2e"/>
     <use x="164.697266" xlink:href="#TimesNewRomanPSMT-34"/>
    </g>
   </g>
   <g id="text_26">
    <!-- f=0.5 -->
    <g style="opacity:0.4;" transform="translate(374.1405 206.364756)scale(0.16 -0.16)">
     <use xlink:href="#TimesNewRomanPSMT-66"/>
     <use x="33.300781" xlink:href="#TimesNewRomanPSMT-3d"/>
     <use x="89.697266" xlink:href="#TimesNewRomanPSMT-30"/>
     <use x="139.697266" xlink:href="#TimesNewRomanPSMT-2e"/>
     <use x="164.697266" xlink:href="#TimesNewRomanPSMT-35"/>
    </g>
   </g>
   <g id="text_27">
    <!-- f=0.5 -->
    <g style="opacity:0.4;" transform="translate(374.1405 184.824683)scale(0.16 -0.16)">
     <use xlink:href="#TimesNewRomanPSMT-66"/>
     <use x="33.300781" xlink:href="#TimesNewRomanPSMT-3d"/>
     <use x="89.697266" xlink:href="#TimesNewRomanPSMT-30"/>
     <use x="139.697266" xlink:href="#TimesNewRomanPSMT-2e"/>
     <use x="164.697266" xlink:href="#TimesNewRomanPSMT-35"/>
    </g>
   </g>
   <g id="text_28">
    <!-- f=0.6 -->
    <g style="opacity:0.4;" transform="translate(374.1405 160.232374)scale(0.16 -0.16)">
     <use xlink:href="#TimesNewRomanPSMT-66"/>
     <use x="33.300781" xlink:href="#TimesNewRomanPSMT-3d"/>
     <use x="89.697266" xlink:href="#TimesNewRomanPSMT-30"/>
     <use x="139.697266" xlink:href="#TimesNewRomanPSMT-2e"/>
     <use x="164.697266" xlink:href="#TimesNewRomanPSMT-36"/>
    </g>
   </g>
   <g id="text_29">
    <!-- f=0.7 -->
    <g style="opacity:0.4;" transform="translate(374.1405 131.889603)scale(0.16 -0.16)">
     <use xlink:href="#TimesNewRomanPSMT-66"/>
     <use x="33.300781" xlink:href="#TimesNewRomanPSMT-3d"/>
     <use x="89.697266" xlink:href="#TimesNewRomanPSMT-30"/>
     <use x="139.697266" xlink:href="#TimesNewRomanPSMT-2e"/>
     <use x="164.697266" xlink:href="#TimesNewRomanPSMT-37"/>
    </g>
   </g>
   <g id="text_30">
    <!-- f=0.8 -->
    <g style="opacity:0.4;" transform="translate(374.1405 98.867602)scale(0.16 -0.16)">
     <use xlink:href="#TimesNewRomanPSMT-66"/>
     <use x="33.300781" xlink:href="#TimesNewRomanPSMT-3d"/>
     <use x="89.697266" xlink:href="#TimesNewRomanPSMT-30"/>
     <use x="139.697266" xlink:href="#TimesNewRomanPSMT-2e"/>
     <use x="164.697266" xlink:href="#TimesNewRomanPSMT-38"/>
    </g>
   </g>
   <g id="text_31">
    <!-- PR Curve for APH -->
    <defs>
     <path id="TimesNewRomanPSMT-20"/>
     <path d="M 60.203125 67.71875 
L 61.71875 45.21875 
L 60.203125 45.21875 
Q 57.171875 55.328125 51.5625 59.765625 
Q 45.953125 64.203125 38.09375 64.203125 
Q 31.5 64.203125 26.171875 60.859375 
Q 20.84375 57.515625 17.796875 50.1875 
Q 14.75 42.875 14.75 31.984375 
Q 14.75 23 17.625 16.40625 
Q 20.515625 9.8125 26.296875 6.296875 
Q 32.078125 2.78125 39.5 2.78125 
Q 45.953125 2.78125 50.875 5.53125 
Q 55.8125 8.296875 61.71875 16.5 
L 63.234375 15.53125 
Q 58.25 6.6875 51.609375 2.578125 
Q 44.96875 -1.515625 35.84375 -1.515625 
Q 19.390625 -1.515625 10.359375 10.6875 
Q 3.609375 19.78125 3.609375 32.078125 
Q 3.609375 42 8.046875 50.296875 
Q 12.5 58.59375 20.28125 63.15625 
Q 28.078125 67.71875 37.3125 67.71875 
Q 44.484375 67.71875 51.46875 64.203125 
Q 53.515625 63.140625 54.390625 63.140625 
Q 55.71875 63.140625 56.6875 64.0625 
Q 57.953125 65.375 58.5 67.71875 
z
" id="TimesNewRomanPSMT-43"/>
     <path d="M 42.328125 44.734375 
L 42.328125 17.625 
Q 42.328125 9.859375 42.6875 8.125 
Q 43.0625 6.390625 43.859375 5.703125 
Q 44.671875 5.03125 45.75 5.03125 
Q 47.265625 5.03125 49.171875 5.859375 
L 49.859375 4.15625 
L 36.46875 -1.375 
L 34.28125 -1.375 
L 34.28125 8.109375 
Q 28.515625 1.859375 25.484375 0.234375 
Q 22.46875 -1.375 19.09375 -1.375 
Q 15.328125 -1.375 12.5625 0.796875 
Q 9.8125 2.984375 8.734375 6.390625 
Q 7.671875 9.8125 7.671875 16.0625 
L 7.671875 36.03125 
Q 7.671875 39.203125 6.984375 40.421875 
Q 6.296875 41.65625 4.953125 42.3125 
Q 3.609375 42.96875 0.09375 42.921875 
L 0.09375 44.734375 
L 15.765625 44.734375 
L 15.765625 14.796875 
Q 15.765625 8.546875 17.9375 6.59375 
Q 20.125 4.640625 23.1875 4.640625 
Q 25.296875 4.640625 27.953125 5.953125 
Q 30.609375 7.28125 34.28125 10.984375 
L 34.28125 36.328125 
Q 34.28125 40.140625 32.890625 41.484375 
Q 31.5 42.828125 27.09375 42.921875 
L 27.09375 44.734375 
z
" id="TimesNewRomanPSMT-75"/>
     <path d="M 0.828125 44.734375 
L 21.875 44.734375 
L 21.875 42.921875 
L 20.515625 42.921875 
Q 18.609375 42.921875 17.609375 41.984375 
Q 16.609375 41.0625 16.609375 39.5 
Q 16.609375 37.796875 17.625 35.453125 
L 28.03125 10.75 
L 38.484375 36.375 
Q 39.59375 39.109375 39.59375 40.53125 
Q 39.59375 41.21875 39.203125 41.65625 
Q 38.671875 42.390625 37.84375 42.65625 
Q 37.015625 42.921875 34.46875 42.921875 
L 34.46875 44.734375 
L 49.078125 44.734375 
L 49.078125 42.921875 
Q 46.53125 42.71875 45.5625 41.890625 
Q 43.84375 40.4375 42.484375 37.015625 
L 26.609375 -1.375 
L 24.609375 -1.375 
L 8.640625 36.375 
Q 7.5625 39.015625 6.578125 40.15625 
Q 5.609375 41.3125 4.109375 42.09375 
Q 3.265625 42.53125 0.828125 42.921875 
z
" id="TimesNewRomanPSMT-76"/>
     <path d="M 45.75 22.171875 
L 20.125 22.171875 
L 15.625 11.71875 
Q 13.96875 7.859375 13.96875 5.953125 
Q 13.96875 4.4375 15.40625 3.296875 
Q 16.84375 2.15625 21.625 1.8125 
L 21.625 0 
L 0.78125 0 
L 0.78125 1.8125 
Q 4.9375 2.546875 6.15625 3.71875 
Q 8.640625 6.0625 11.671875 13.234375 
L 34.96875 67.71875 
L 36.671875 67.71875 
L 59.71875 12.640625 
Q 62.5 6 64.765625 4.015625 
Q 67.046875 2.046875 71.09375 1.8125 
L 71.09375 0 
L 44.96875 0 
L 44.96875 1.8125 
Q 48.921875 2 50.3125 3.125 
Q 51.703125 4.25 51.703125 5.859375 
Q 51.703125 8.015625 49.75 12.640625 
z
M 44.390625 25.78125 
L 33.15625 52.546875 
L 21.625 25.78125 
z
" id="TimesNewRomanPSMT-41"/>
     <path d="M 20.5625 35.5 
L 51.3125 35.5 
L 51.3125 54.4375 
Q 51.3125 59.515625 50.6875 61.140625 
Q 50.203125 62.359375 48.640625 63.234375 
Q 46.53125 64.40625 44.1875 64.40625 
L 41.84375 64.40625 
L 41.84375 66.21875 
L 70.171875 66.21875 
L 70.171875 64.40625 
L 67.828125 64.40625 
Q 65.484375 64.40625 63.375 63.28125 
Q 61.8125 62.5 61.25 60.90625 
Q 60.6875 59.328125 60.6875 54.4375 
L 60.6875 11.71875 
Q 60.6875 6.6875 61.328125 5.078125 
Q 61.8125 3.859375 63.328125 2.984375 
Q 65.484375 1.8125 67.828125 1.8125 
L 70.171875 1.8125 
L 70.171875 0 
L 41.84375 0 
L 41.84375 1.8125 
L 44.1875 1.8125 
Q 48.25 1.8125 50.09375 4.203125 
Q 51.3125 5.765625 51.3125 11.71875 
L 51.3125 31.890625 
L 20.5625 31.890625 
L 20.5625 11.71875 
Q 20.5625 6.6875 21.1875 5.078125 
Q 21.6875 3.859375 23.25 2.984375 
Q 25.34375 1.8125 27.6875 1.8125 
L 30.078125 1.8125 
L 30.078125 0 
L 1.703125 0 
L 1.703125 1.8125 
L 4.046875 1.8125 
Q 8.15625 1.8125 10.015625 4.203125 
Q 11.1875 5.765625 11.1875 11.71875 
L 11.1875 54.4375 
Q 11.1875 59.515625 10.546875 61.140625 
Q 10.0625 62.359375 8.546875 63.234375 
Q 6.390625 64.40625 4.046875 64.40625 
L 1.703125 64.40625 
L 1.703125 66.21875 
L 30.078125 66.21875 
L 30.078125 64.40625 
L 27.6875 64.40625 
Q 25.34375 64.40625 23.25 63.28125 
Q 21.734375 62.5 21.140625 60.90625 
Q 20.5625 59.328125 20.5625 54.4375 
z
" id="TimesNewRomanPSMT-48"/>
    </defs>
    <g transform="translate(158.499 20.532)scale(0.192 -0.192)">
     <use xlink:href="#TimesNewRomanPSMT-50"/>
     <use x="55.615234" xlink:href="#TimesNewRomanPSMT-52"/>
     <use x="122.314453" xlink:href="#TimesNewRomanPSMT-20"/>
     <use x="147.314453" xlink:href="#TimesNewRomanPSMT-43"/>
     <use x="214.013672" xlink:href="#TimesNewRomanPSMT-75"/>
     <use x="264.013672" xlink:href="#TimesNewRomanPSMT-72"/>
     <use x="297.314453" xlink:href="#TimesNewRomanPSMT-76"/>
     <use x="347.314453" xlink:href="#TimesNewRomanPSMT-65"/>
     <use x="391.699219" xlink:href="#TimesNewRomanPSMT-20"/>
     <use x="416.699219" xlink:href="#TimesNewRomanPSMT-66"/>
     <use x="450" xlink:href="#TimesNewRomanPSMT-6f"/>
     <use x="500" xlink:href="#TimesNewRomanPSMT-72"/>
     <use x="533.300781" xlink:href="#TimesNewRomanPSMT-20"/>
     <use x="558.222656" xlink:href="#TimesNewRomanPSMT-41"/>
     <use x="630.439453" xlink:href="#TimesNewRomanPSMT-50"/>
     <use x="686.054688" xlink:href="#TimesNewRomanPSMT-48"/>
    </g>
   </g>
   <g id="legend_1">
    <g id="patch_7">
     <path d="M 63.9325 284.644 
L 184.405 284.644 
Q 187.605 284.644 187.605 281.444 
L 187.605 192.554 
Q 187.605 189.354 184.405 189.354 
L 63.9325 189.354 
Q 60.7325 189.354 60.7325 192.554 
L 60.7325 281.444 
Q 60.7325 284.644 63.9325 284.644 
z
" style="fill:#ffffff;opacity:0.8;stroke:#cccccc;stroke-linejoin:miter;"/>
    </g>
    <g id="line2d_53">
     <path d="M 67.1325 201.354 
L 99.1325 201.354 
" style="fill:none;stroke:#1f77b4;stroke-linecap:square;stroke-width:3;"/>
    </g>
    <g id="line2d_54"/>
    <g id="text_32">
     <!-- LSD -->
     <defs>
      <path d="M 57.328125 18.3125 
L 58.9375 17.96875 
L 53.265625 0 
L 2 0 
L 2 1.8125 
L 4.5 1.8125 
Q 8.6875 1.8125 10.5 4.546875 
Q 11.53125 6.109375 11.53125 11.765625 
L 11.53125 54.5 
Q 11.53125 60.6875 10.15625 62.25 
Q 8.25 64.40625 4.5 64.40625 
L 2 64.40625 
L 2 66.21875 
L 31.984375 66.21875 
L 31.984375 64.40625 
Q 26.703125 64.453125 24.578125 63.421875 
Q 22.46875 62.40625 21.6875 60.84375 
Q 20.90625 59.28125 20.90625 53.375 
L 20.90625 11.765625 
Q 20.90625 7.71875 21.6875 6.203125 
Q 22.265625 5.171875 23.484375 4.6875 
Q 24.703125 4.203125 31.109375 4.203125 
L 35.9375 4.203125 
Q 43.5625 4.203125 46.625 5.328125 
Q 49.703125 6.453125 52.234375 9.296875 
Q 54.78125 12.15625 57.328125 18.3125 
z
" id="TimesNewRomanPSMT-4c"/>
      <path d="M 45.84375 67.71875 
L 45.84375 44.828125 
L 44.046875 44.828125 
Q 43.171875 51.421875 40.890625 55.328125 
Q 38.625 59.234375 34.421875 61.515625 
Q 30.21875 63.8125 25.734375 63.8125 
Q 20.65625 63.8125 17.328125 60.71875 
Q 14.015625 57.625 14.015625 53.65625 
Q 14.015625 50.640625 16.109375 48.140625 
Q 19.140625 44.484375 30.515625 38.375 
Q 39.796875 33.40625 43.1875 30.734375 
Q 46.578125 28.078125 48.40625 24.453125 
Q 50.25 20.84375 50.25 16.890625 
Q 50.25 9.375 44.40625 3.921875 
Q 38.578125 -1.515625 29.390625 -1.515625 
Q 26.515625 -1.515625 23.96875 -1.078125 
Q 22.46875 -0.828125 17.703125 0.703125 
Q 12.9375 2.25 11.671875 2.25 
Q 10.453125 2.25 9.734375 1.515625 
Q 9.03125 0.78125 8.6875 -1.515625 
L 6.890625 -1.515625 
L 6.890625 21.1875 
L 8.6875 21.1875 
Q 9.96875 14.0625 12.109375 10.515625 
Q 14.265625 6.984375 18.671875 4.640625 
Q 23.09375 2.296875 28.375 2.296875 
Q 34.46875 2.296875 38 5.515625 
Q 41.546875 8.734375 41.546875 13.140625 
Q 41.546875 15.578125 40.203125 18.0625 
Q 38.875 20.5625 36.03125 22.703125 
Q 34.125 24.171875 25.625 28.921875 
Q 17.140625 33.6875 13.546875 36.515625 
Q 9.96875 39.359375 8.109375 42.765625 
Q 6.25 46.1875 6.25 50.296875 
Q 6.25 57.421875 11.71875 62.5625 
Q 17.1875 67.71875 25.640625 67.71875 
Q 30.90625 67.71875 36.8125 65.140625 
Q 39.546875 63.921875 40.671875 63.921875 
Q 41.9375 63.921875 42.75 64.671875 
Q 43.5625 65.4375 44.046875 67.71875 
z
" id="TimesNewRomanPSMT-53"/>
      <path d="M 1.703125 0 
L 1.703125 1.8125 
L 4.203125 1.8125 
Q 8.40625 1.8125 10.15625 4.5 
Q 11.234375 6.109375 11.234375 11.71875 
L 11.234375 54.5 
Q 11.234375 60.6875 9.859375 62.25 
Q 7.953125 64.40625 4.203125 64.40625 
L 1.703125 64.40625 
L 1.703125 66.21875 
L 28.65625 66.21875 
Q 43.5 66.21875 51.234375 62.84375 
Q 58.984375 59.46875 63.6875 51.609375 
Q 68.40625 43.75 68.40625 33.453125 
Q 68.40625 19.625 60.015625 10.359375 
Q 50.59375 0 31.296875 0 
z
M 20.609375 4.78125 
Q 26.8125 3.421875 31 3.421875 
Q 42.328125 3.421875 49.796875 11.375 
Q 57.28125 19.34375 57.28125 32.953125 
Q 57.28125 46.6875 49.796875 54.59375 
Q 42.328125 62.5 30.609375 62.5 
Q 26.21875 62.5 20.609375 61.078125 
z
" id="TimesNewRomanPSMT-44"/>
     </defs>
     <g transform="translate(111.9325 206.954)scale(0.16 -0.16)">
      <use xlink:href="#TimesNewRomanPSMT-4c"/>
      <use x="61.083984" xlink:href="#TimesNewRomanPSMT-53"/>
      <use x="116.699219" xlink:href="#TimesNewRomanPSMT-44"/>
     </g>
    </g>
    <g id="line2d_55">
     <path d="M 67.1325 223.9765 
L 99.1325 223.9765 
" style="fill:none;stroke:#ff7f0e;stroke-linecap:square;stroke-width:3;"/>
    </g>
    <g id="line2d_56"/>
    <g id="text_33">
     <!-- Wireframe -->
     <defs>
      <path d="M 93.609375 66.21875 
L 93.609375 64.40625 
Q 91.015625 64.40625 89.40625 63.46875 
Q 87.796875 62.546875 86.328125 60.015625 
Q 85.359375 58.296875 83.25 51.859375 
L 64.796875 -1.515625 
L 62.84375 -1.515625 
L 47.75 40.828125 
L 32.765625 -1.515625 
L 31 -1.515625 
L 11.328125 53.46875 
Q 9.125 59.625 8.546875 60.75 
Q 7.5625 62.59375 5.875 63.5 
Q 4.203125 64.40625 1.3125 64.40625 
L 1.3125 66.21875 
L 25.828125 66.21875 
L 25.828125 64.40625 
L 24.65625 64.40625 
Q 22.078125 64.40625 20.703125 63.234375 
Q 19.34375 62.0625 19.34375 60.40625 
Q 19.34375 58.6875 21.484375 52.546875 
L 34.515625 15.375 
L 45.515625 46.96875 
L 43.5625 52.546875 
L 42 56.984375 
Q 40.96875 59.421875 39.703125 61.28125 
Q 39.0625 62.203125 38.140625 62.84375 
Q 36.921875 63.71875 35.6875 64.109375 
Q 34.765625 64.40625 32.765625 64.40625 
L 32.765625 66.21875 
L 58.546875 66.21875 
L 58.546875 64.40625 
L 56.78125 64.40625 
Q 54.046875 64.40625 52.78125 63.234375 
Q 51.515625 62.0625 51.515625 60.0625 
Q 51.515625 57.5625 53.71875 51.375 
L 66.40625 15.375 
L 79 51.859375 
Q 81.15625 57.90625 81.15625 60.25 
Q 81.15625 61.375 80.4375 62.34375 
Q 79.734375 63.328125 78.65625 63.71875 
Q 76.8125 64.40625 73.828125 64.40625 
L 73.828125 66.21875 
z
" id="TimesNewRomanPSMT-57"/>
      <path d="M 16.40625 36.53125 
Q 21.296875 41.40625 22.171875 42.140625 
Q 24.359375 44 26.890625 45.015625 
Q 29.4375 46.046875 31.9375 46.046875 
Q 36.140625 46.046875 39.15625 43.59375 
Q 42.1875 41.15625 43.21875 36.53125 
Q 48.25 42.390625 51.703125 44.21875 
Q 55.171875 46.046875 58.84375 46.046875 
Q 62.40625 46.046875 65.15625 44.21875 
Q 67.921875 42.390625 69.53125 38.234375 
Q 70.609375 35.40625 70.609375 29.34375 
L 70.609375 10.109375 
Q 70.609375 5.90625 71.234375 4.34375 
Q 71.734375 3.265625 73.046875 2.515625 
Q 74.359375 1.765625 77.34375 1.765625 
L 77.34375 0 
L 55.28125 0 
L 55.28125 1.765625 
L 56.203125 1.765625 
Q 59.078125 1.765625 60.6875 2.875 
Q 61.8125 3.65625 62.3125 5.375 
Q 62.5 6.203125 62.5 10.109375 
L 62.5 29.34375 
Q 62.5 34.8125 61.1875 37.0625 
Q 59.28125 40.1875 55.078125 40.1875 
Q 52.484375 40.1875 49.875 38.890625 
Q 47.265625 37.59375 43.5625 34.078125 
L 43.453125 33.546875 
L 43.5625 31.453125 
L 43.5625 10.109375 
Q 43.5625 5.515625 44.0625 4.390625 
Q 44.578125 3.265625 45.984375 2.515625 
Q 47.40625 1.765625 50.828125 1.765625 
L 50.828125 0 
L 28.21875 0 
L 28.21875 1.765625 
Q 31.9375 1.765625 33.328125 2.640625 
Q 34.71875 3.515625 35.25 5.28125 
Q 35.5 6.109375 35.5 10.109375 
L 35.5 29.34375 
Q 35.5 34.8125 33.890625 37.203125 
Q 31.734375 40.328125 27.875 40.328125 
Q 25.25 40.328125 22.65625 38.921875 
Q 18.609375 36.765625 16.40625 34.078125 
L 16.40625 10.109375 
Q 16.40625 5.71875 17.015625 4.390625 
Q 17.625 3.078125 18.8125 2.421875 
Q 20.015625 1.765625 23.6875 1.765625 
L 23.6875 0 
L 1.5625 0 
L 1.5625 1.765625 
Q 4.640625 1.765625 5.859375 2.421875 
Q 7.078125 3.078125 7.703125 4.515625 
Q 8.34375 5.953125 8.34375 10.109375 
L 8.34375 27.203125 
Q 8.34375 34.578125 7.90625 36.71875 
Q 7.5625 38.328125 6.828125 38.9375 
Q 6.109375 39.546875 4.828125 39.546875 
Q 3.46875 39.546875 1.5625 38.8125 
L 0.828125 40.578125 
L 14.3125 46.046875 
L 16.40625 46.046875 
z
" id="TimesNewRomanPSMT-6d"/>
     </defs>
     <g transform="translate(111.9325 229.5765)scale(0.16 -0.16)">
      <use xlink:href="#TimesNewRomanPSMT-57"/>
      <use x="94.322266" xlink:href="#TimesNewRomanPSMT-69"/>
      <use x="122.105469" xlink:href="#TimesNewRomanPSMT-72"/>
      <use x="155.40625" xlink:href="#TimesNewRomanPSMT-65"/>
      <use x="199.791016" xlink:href="#TimesNewRomanPSMT-66"/>
      <use x="233.091797" xlink:href="#TimesNewRomanPSMT-72"/>
      <use x="266.392578" xlink:href="#TimesNewRomanPSMT-61"/>
      <use x="310.777344" xlink:href="#TimesNewRomanPSMT-6d"/>
      <use x="388.560547" xlink:href="#TimesNewRomanPSMT-65"/>
     </g>
    </g>
    <g id="line2d_57">
     <path d="M 67.1325 246.599 
L 99.1325 246.599 
" style="fill:none;stroke:#2ca02c;stroke-linecap:square;stroke-width:3;"/>
    </g>
    <g id="line2d_58"/>
    <g id="text_34">
     <!-- AFM -->
     <defs>
      <path d="M 20.453125 62.59375 
L 20.453125 36.578125 
L 32.515625 36.578125 
Q 36.671875 36.578125 38.59375 38.40625 
Q 40.53125 40.234375 41.15625 45.65625 
L 42.96875 45.65625 
L 42.96875 23.25 
L 41.15625 23.25 
Q 41.109375 27.09375 40.15625 28.90625 
Q 39.203125 30.71875 37.515625 31.609375 
Q 35.84375 32.515625 32.515625 32.515625 
L 20.453125 32.515625 
L 20.453125 11.71875 
Q 20.453125 6.6875 21.09375 5.078125 
Q 21.578125 3.859375 23.140625 2.984375 
Q 25.296875 1.8125 27.640625 1.8125 
L 30.03125 1.8125 
L 30.03125 0 
L 1.609375 0 
L 1.609375 1.8125 
L 3.953125 1.8125 
Q 8.0625 1.8125 9.90625 4.203125 
Q 11.078125 5.765625 11.078125 11.71875 
L 11.078125 54.5 
Q 11.078125 59.515625 10.453125 61.140625 
Q 9.96875 62.359375 8.453125 63.234375 
Q 6.34375 64.40625 3.953125 64.40625 
L 1.609375 64.40625 
L 1.609375 66.21875 
L 50.875 66.21875 
L 51.515625 51.65625 
L 49.8125 51.65625 
Q 48.53125 56.296875 46.84375 58.46875 
Q 45.171875 60.640625 42.703125 61.609375 
Q 40.234375 62.59375 35.0625 62.59375 
z
" id="TimesNewRomanPSMT-46"/>
      <path d="M 40.921875 0 
L 15.328125 55.71875 
L 15.328125 11.46875 
Q 15.328125 5.375 16.65625 3.859375 
Q 18.453125 1.8125 22.359375 1.8125 
L 24.703125 1.8125 
L 24.703125 0 
L 1.65625 0 
L 1.65625 1.8125 
L 4 1.8125 
Q 8.203125 1.8125 9.96875 4.34375 
Q 11.03125 5.90625 11.03125 11.46875 
L 11.03125 54.734375 
Q 11.03125 59.125 10.0625 61.078125 
Q 9.375 62.5 7.546875 63.453125 
Q 5.71875 64.40625 1.65625 64.40625 
L 1.65625 66.21875 
L 20.40625 66.21875 
L 44.4375 14.40625 
L 68.0625 66.21875 
L 86.8125 66.21875 
L 86.8125 64.40625 
L 84.515625 64.40625 
Q 80.28125 64.40625 78.515625 61.859375 
Q 77.4375 60.296875 77.4375 54.734375 
L 77.4375 11.46875 
Q 77.4375 5.375 78.8125 3.859375 
Q 80.609375 1.8125 84.515625 1.8125 
L 86.8125 1.8125 
L 86.8125 0 
L 58.6875 0 
L 58.6875 1.8125 
L 61.03125 1.8125 
Q 65.28125 1.8125 67 4.34375 
Q 68.0625 5.90625 68.0625 11.46875 
L 68.0625 55.71875 
L 42.53125 0 
z
" id="TimesNewRomanPSMT-4d"/>
     </defs>
     <g transform="translate(111.9325 252.199)scale(0.16 -0.16)">
      <use xlink:href="#TimesNewRomanPSMT-41"/>
      <use x="72.216797" xlink:href="#TimesNewRomanPSMT-46"/>
      <use x="127.832031" xlink:href="#TimesNewRomanPSMT-4d"/>
     </g>
    </g>
    <g id="line2d_59">
     <path d="M 67.1325 269.2215 
L 99.1325 269.2215 
" style="fill:none;stroke:#d62728;stroke-linecap:square;stroke-width:3;"/>
    </g>
    <g id="line2d_60"/>
    <g id="text_35">
     <!-- L-CNN -->
     <defs>
      <path d="M 4.046875 26.125 
L 29.296875 26.125 
L 29.296875 18.75 
L 4.046875 18.75 
z
" id="TimesNewRomanPSMT-2d"/>
      <path d="M -1.3125 66.21875 
L 16.65625 66.21875 
L 57.125 16.546875 
L 57.125 54.734375 
Q 57.125 60.84375 55.765625 62.359375 
Q 53.953125 64.40625 50.046875 64.40625 
L 47.75 64.40625 
L 47.75 66.21875 
L 70.796875 66.21875 
L 70.796875 64.40625 
L 68.453125 64.40625 
Q 64.265625 64.40625 62.5 61.859375 
Q 61.421875 60.296875 61.421875 54.734375 
L 61.421875 -1.078125 
L 59.671875 -1.078125 
L 16.015625 52.25 
L 16.015625 11.46875 
Q 16.015625 5.375 17.328125 3.859375 
Q 19.1875 1.8125 23.046875 1.8125 
L 25.390625 1.8125 
L 25.390625 0 
L 2.34375 0 
L 2.34375 1.8125 
L 4.640625 1.8125 
Q 8.890625 1.8125 10.640625 4.34375 
Q 11.71875 5.90625 11.71875 11.46875 
L 11.71875 57.515625 
Q 8.84375 60.890625 7.34375 61.953125 
Q 5.859375 63.03125 2.984375 63.96875 
Q 1.5625 64.40625 -1.3125 64.40625 
z
" id="TimesNewRomanPSMT-4e"/>
     </defs>
     <g transform="translate(111.9325 274.8215)scale(0.16 -0.16)">
      <use xlink:href="#TimesNewRomanPSMT-4c"/>
      <use x="61.083984" xlink:href="#TimesNewRomanPSMT-2d"/>
      <use x="94.384766" xlink:href="#TimesNewRomanPSMT-43"/>
      <use x="161.083984" xlink:href="#TimesNewRomanPSMT-4e"/>
      <use x="233.300781" xlink:href="#TimesNewRomanPSMT-4e"/>
     </g>
    </g>
   </g>
  </g>
 </g>
 <defs>
  <clipPath id="p92daca8748">
   <rect height="266.112" width="357.12" x="52.7325" y="26.532"/>
  </clipPath>
 </defs>
</svg>
